<?xml version="1.0" standalone="no"?>
<!DOCTYPE svg PUBLIC "-//W3C//DTD SVG 1.1//EN" "http://www.w3.org/Graphics/SVG/1.1/DTD/svg11.dtd" >
<svg xmlns="http://www.w3.org/2000/svg" xmlns:xlink="http://www.w3.org/1999/xlink" version="1.1">
<metadata>
Created by FontForge 20141024 at Mon Dec 29 06:04:59 2014
 By System Administrator
</metadata>
<defs>
<font id="MatissePro-DB-AlphaNum" horiz-adv-x="1000" vert-adv-y="1000" >
  <font-face 
    font-family="(null)"
    font-weight="400"
    font-stretch="normal"
    units-per-em="1000"
    panose-1="2 0 5 3 0 0 0 0 0 0"
    ascent="800"
    descent="-200"
    x-height="507"
    cap-height="743"
    bbox="4 -120 999 856"
    underline-thickness="50"
    underline-position="-100"
    stemh="17"
    stemv="59"
    unicode-range="U+2160-325B"
  />
    <missing-glyph />
    <glyph glyph-name="uni2460" unicode="&#x2460;" 
d="M988 368c0 -269 -219 -488 -488 -488s-488 219 -488 488s219 488 488 488s488 -219 488 -488zM942 368c0 244 -198 441 -442 441s-441 -197 -441 -441s197 -442 441 -442s442 198 442 442zM634 70c0 -5 -2 -7 -10 -7h-245c-8 0 -10 2 -10 7c0 4 1 6 4 8c1 0 3 1 4 1
c18 3 45 7 61 13c12 5 20 11 20 25c0 74 1 178 1 253c0 87 -1 175 -1 227c0 10 -1 14 -10 14c-10 0 -31 -5 -71 -16h-2c-6 0 -9 5 -9 10c0 4 2 7 6 9c56 21 117 47 164 68c2 1 4 2 5 2c3 0 6 -2 6 -8v-3c-2 -26 -2 -206 -2 -303v-253c0 -14 8 -20 21 -25
c16 -6 42 -10 60 -13c6 -1 8 -4 8 -9z" />
    <glyph glyph-name="uni2461" unicode="&#x2461;" 
d="M988 368c0 -269 -219 -488 -488 -488s-488 219 -488 488s219 488 488 488s488 -219 488 -488zM942 368c0 244 -198 441 -442 441s-441 -197 -441 -441s197 -442 441 -442s442 198 442 442zM720 217c-10 -44 -21 -105 -26 -139c-2 -11 -6 -11 -12 -11h-398
c-8 0 -13 3 -13 10c0 4 2 10 5 18c31 87 88 165 199 247c74 53 141 115 141 186c0 78 -59 124 -126 124c-66 0 -115 -31 -115 -74c0 -13 5 -28 16 -44c4 -7 6 -14 6 -22c0 -24 -18 -48 -48 -48c-5 0 -10 1 -15 2c-27 6 -40 26 -40 59c1 92 87 161 201 161
c124 0 209 -67 209 -167c0 -82 -62 -144 -202 -219c-79 -42 -139 -104 -161 -165h23c44 0 139 1 199 5c83 7 109 17 141 81c1 2 3 6 7 6c2 0 3 -1 4 -1c4 -2 5 -3 5 -6v-3z" />
    <glyph glyph-name="uni2462" unicode="&#x2462;" 
d="M988 368c0 -269 -219 -488 -488 -488s-488 219 -488 488s219 488 488 488s488 -219 488 -488zM942 368c0 244 -198 441 -442 441s-441 -197 -441 -441s197 -442 441 -442s442 198 442 442zM717 235c0 -119 -91 -179 -224 -179c-131 0 -205 62 -215 130c-4 27 10 63 42 63
c35 0 52 -19 53 -55c1 -60 37 -97 115 -104h10c65 0 133 53 133 130c0 4 -1 9 -1 13c-10 104 -88 148 -204 149c-12 0 -18 3 -18 13c0 12 6 14 21 14c99 2 183 35 183 124c0 4 -1 8 -1 12c-6 67 -50 109 -124 109h-3c-61 -1 -102 -27 -102 -61c0 -9 3 -18 8 -27
c3 -6 5 -12 5 -18c0 -22 -19 -44 -46 -44c-5 0 -9 1 -14 2c-24 6 -34 25 -34 48c0 68 85 132 191 132c126 0 201 -62 201 -142c0 -91 -72 -142 -157 -145c-8 0 -12 -1 -12 -2s5 -2 13 -2c93 0 180 -71 180 -160z" />
    <glyph glyph-name="uni2463" unicode="&#x2463;" 
d="M988 368c0 -269 -219 -488 -488 -488s-488 219 -488 488s219 488 488 488s488 -219 488 -488zM942 368c0 244 -198 441 -442 441s-441 -197 -441 -441s197 -442 441 -442s442 198 442 442zM717 244c0 -17 -4 -17 -15 -17h-120v-109c0 -14 8 -20 20 -25
c16 -6 35 -10 50 -13c6 -1 7 -4 7 -9s-2 -7 -10 -7h-219c-8 0 -11 2 -11 7c0 4 1 6 4 8c1 0 3 1 4 1c14 3 36 7 51 13c13 5 21 11 21 25v109h-255c-13 0 -14 4 -14 17c0 15 1 17 6 24c95 122 204 266 311 410c3 5 6 8 14 8c3 0 5 -1 8 -1c11 -3 13 -6 13 -16v-407h120
c11 0 15 -1 15 -18zM504 553l-4 1c-26 -36 -147 -195 -221 -292h220s1 227 5 291z" />
    <glyph glyph-name="uni2464" unicode="&#x2464;" 
d="M988 368c0 -269 -219 -488 -488 -488s-488 219 -488 488s219 488 488 488s488 -219 488 -488zM942 368c0 244 -198 441 -442 441s-441 -197 -441 -441s197 -442 441 -442s442 198 442 442zM718 248c0 -121 -87 -199 -224 -199c-124 0 -198 55 -209 126c0 3 -1 5 -1 8
c0 23 12 49 41 49c32 0 49 -16 50 -54c1 -61 53 -99 117 -99c75 0 139 55 139 150v9c-4 100 -76 163 -159 163c-58 0 -103 -21 -135 -61c-5 -6 -11 -10 -19 -10c-2 0 -4 0 -7 1c-6 3 -8 6 -8 12c0 3 0 7 1 12c18 101 34 217 45 304c1 6 2 9 9 9h276c19 0 33 3 43 11
c5 3 7 4 10 4h2c1 -1 2 -2 2 -4s-1 -4 -1 -6c-4 -17 -13 -52 -17 -73c-1 -4 -3 -7 -8 -7h-288c-6 -33 -20 -127 -32 -202v-3c0 -2 1 -4 2 -4c2 0 3 1 5 3c20 22 76 47 119 50c8 1 17 1 25 1c127 0 222 -73 222 -190z" />
    <glyph glyph-name="uni2465" unicode="&#x2465;" 
d="M988 368c0 -269 -219 -488 -488 -488s-488 219 -488 488s219 488 488 488s488 -219 488 -488zM942 368c0 244 -198 441 -442 441s-441 -197 -441 -441s197 -442 441 -442s442 198 442 442zM721 246c-1 -103 -77 -191 -213 -191h-7c-125 3 -230 85 -230 282
c0 216 87 344 241 348h5c99 0 180 -60 186 -128v-6c0 -22 -14 -40 -37 -42h-6c-30 0 -47 22 -47 53v3c0 51 -43 86 -101 86c-92 0 -161 -78 -161 -279v-9c28 52 99 82 161 83h8c114 0 201 -79 201 -198v-2zM638 240v5c-3 102 -65 160 -135 160h-2c-72 -1 -141 -55 -141 -139
v-5c4 -108 73 -172 148 -173h2c68 0 128 53 128 152z" />
    <glyph glyph-name="uni2466" unicode="&#x2466;" 
d="M988 368c0 -269 -219 -488 -488 -488s-488 219 -488 488s219 488 488 488s488 -219 488 -488zM942 368c0 244 -198 441 -442 441s-441 -197 -441 -441s197 -442 441 -442s442 198 442 442zM736 639c0 -2 -2 -6 -6 -12c-138 -187 -207 -337 -222 -557
c-2 -24 -14 -45 -62 -45c-33 0 -44 15 -44 33c0 4 0 7 1 11c35 166 147 394 254 501h-226c-77 0 -95 -15 -127 -69c-2 -2 -4 -4 -8 -4h-3c-3 1 -5 2 -5 5v2c11 47 18 94 23 130c1 8 4 11 11 11h403c7 0 11 -2 11 -6z" />
    <glyph glyph-name="uni2467" unicode="&#x2467;" 
d="M988 368c0 -269 -219 -488 -488 -488s-488 219 -488 488s219 488 488 488s488 -219 488 -488zM942 368c0 244 -198 441 -442 441s-441 -197 -441 -441s197 -442 441 -442s442 198 442 442zM726 226c0 -110 -93 -173 -226 -173c-128 0 -224 62 -224 174
c0 73 57 134 146 163c-77 40 -120 86 -120 148v2c1 87 79 146 198 146c120 0 199 -62 200 -146v-2c0 -60 -53 -113 -128 -139c97 -40 154 -94 154 -173zM631 542c-2 68 -65 113 -135 113c-71 0 -117 -42 -117 -109v-2c1 -51 64 -93 150 -126c69 23 103 66 102 124zM632 206
v9c-3 65 -57 118 -168 155c-67 -23 -120 -72 -120 -140v-4c3 -77 79 -139 153 -139c80 0 135 35 135 119z" />
    <glyph glyph-name="uni2468" unicode="&#x2468;" 
d="M988 368c0 -269 -219 -488 -488 -488s-488 219 -488 488s219 488 488 488s488 -219 488 -488zM942 368c0 244 -198 441 -442 441s-441 -197 -441 -441s197 -442 441 -442s442 198 442 442zM736 393c0 -228 -87 -340 -241 -342h-2c-96 0 -183 64 -192 128v7
c0 23 12 44 39 45h4c29 0 45 -21 47 -59c3 -52 52 -87 104 -87c93 0 160 82 161 289c-36 -51 -104 -79 -163 -80h-5c-112 0 -202 71 -202 191v2c1 106 84 197 214 197h6c136 -3 230 -91 230 -291zM647 467v5c-3 107 -61 178 -148 179h-2c-65 0 -128 -59 -128 -155v-5
c3 -106 66 -157 137 -158h4c70 0 137 53 137 134z" />
    <glyph glyph-name="uni2469" unicode="&#x2469;" 
d="M988 368c0 -269 -219 -488 -488 -488s-488 219 -488 488s219 488 488 488s488 -219 488 -488zM942 368c0 244 -198 441 -442 441s-441 -197 -441 -441s197 -442 441 -442s442 198 442 442zM421 72c0 -6 -2 -8 -9 -8h-203c-7 0 -9 2 -9 8c0 4 2 7 7 8c12 3 31 7 45 13
c12 5 20 11 20 25c0 74 1 178 1 253c0 87 -1 175 -1 227c0 10 -1 14 -9 14c-9 0 -26 -4 -58 -13h-2c-5 0 -8 5 -8 10c0 4 2 7 5 9c55 22 94 43 140 66c1 1 3 1 5 1c3 0 6 -2 6 -8v-3c-2 -26 -3 -206 -3 -303c0 -87 1 -179 1 -253c0 -14 8 -20 20 -25s29 -10 45 -13
c6 -1 7 -4 7 -8zM809 369c0 -197 -51 -316 -172 -316c-120 0 -171 116 -171 316c0 191 51 314 171 314c121 0 172 -119 172 -314zM730 368c0 211 -34 284 -93 284c-58 0 -91 -73 -91 -284c0 -214 33 -282 91 -282c59 0 93 68 93 282z" />
    <glyph glyph-name="uni246A" unicode="&#x246a;" 
d="M988 368c0 -269 -219 -488 -488 -488s-488 219 -488 488s219 488 488 488s488 -219 488 -488zM942 368c0 244 -198 441 -442 441s-441 -197 -441 -441s197 -442 441 -442s442 198 442 442zM786 71c0 -5 -2 -8 -10 -8h-210c-7 0 -9 3 -9 8c0 4 2 7 7 8c15 3 31 8 47 13
c12 5 20 11 20 25v253v227c0 10 -1 15 -10 15c-10 0 -30 -5 -67 -15h-2c-5 0 -8 5 -8 10c0 4 1 7 5 9c55 21 108 45 154 67c1 1 3 1 5 1c3 0 6 -2 6 -8v-3c-2 -25 -3 -206 -3 -303c0 -86 1 -179 1 -253c0 -14 8 -20 20 -25c16 -5 30 -9 47 -13c5 -1 7 -4 7 -8zM444 71
c0 -5 -2 -8 -10 -8h-209c-8 0 -10 3 -10 8c0 4 2 7 8 8c14 3 30 8 46 13c12 5 20 11 20 25v253v227c0 10 -1 15 -10 15c-10 0 -30 -5 -67 -15h-2c-5 0 -8 5 -8 10c0 4 1 7 5 9c55 21 108 45 154 67c1 1 3 1 5 1c3 0 6 -2 6 -8v-3c-2 -25 -3 -206 -3 -303
c0 -86 1 -179 1 -253c0 -14 8 -20 20 -25c16 -5 30 -9 47 -13c5 -1 7 -4 7 -8z" />
    <glyph glyph-name="uni246B" unicode="&#x246b;" 
d="M988 368c0 -269 -219 -488 -488 -488s-488 219 -488 488s219 488 488 488s488 -219 488 -488zM942 368c0 244 -198 441 -442 441s-441 -197 -441 -441s197 -442 441 -442s442 198 442 442zM421 72c0 -6 -2 -8 -9 -8h-203c-7 0 -9 2 -9 8c0 4 2 7 7 8c12 3 31 7 45 13
c12 5 20 11 20 25c0 74 1 178 1 253c0 87 -1 175 -1 227c0 10 -1 14 -9 14c-9 0 -26 -4 -58 -13h-2c-5 0 -8 5 -8 10c0 4 2 7 5 9c55 22 94 43 140 66c1 1 3 1 5 1c3 0 6 -2 6 -8v-3c-2 -26 -3 -206 -3 -303c0 -87 1 -179 1 -253c0 -14 8 -20 20 -25s29 -10 45 -13
c6 -1 7 -4 7 -8zM805 214c-6 -26 -11 -52 -15 -76c-4 -23 -7 -45 -9 -63c-1 -8 -3 -11 -8 -11h-292c-10 0 -14 3 -14 10c0 3 1 7 2 12c25 105 70 178 162 258c65 56 82 125 82 184c0 79 -26 123 -81 123c-51 0 -80 -24 -80 -61c0 -17 7 -37 20 -58c4 -7 6 -14 6 -22
c0 -23 -21 -45 -46 -45c-5 0 -10 1 -15 3c-29 11 -34 38 -34 57c0 85 48 157 156 157c95 0 156 -64 156 -160c0 -82 -28 -143 -141 -219c-66 -44 -107 -109 -125 -172c46 0 82 1 137 5c74 6 93 18 126 80c2 4 3 5 6 5h3c2 -1 4 -2 4 -5v-2z" />
    <glyph glyph-name="uni246C" unicode="&#x246c;" 
d="M988 368c0 -269 -219 -488 -488 -488s-488 219 -488 488s219 488 488 488s488 -219 488 -488zM942 368c0 244 -198 441 -442 441s-441 -197 -441 -441s197 -442 441 -442s442 198 442 442zM421 72c0 -6 -2 -8 -9 -8h-203c-7 0 -9 2 -9 8c0 4 2 7 7 8c12 3 31 7 45 13
c12 5 20 11 20 25c0 74 1 178 1 253c0 87 -1 175 -1 227c0 10 -1 14 -9 14c-9 0 -26 -4 -58 -13h-2c-5 0 -8 5 -8 10c0 4 2 7 5 9c55 22 94 43 140 66c1 1 3 1 5 1c3 0 6 -2 6 -8v-3c-2 -26 -3 -206 -3 -303c0 -87 1 -179 1 -253c0 -14 8 -20 20 -25s29 -10 45 -13
c6 -1 7 -4 7 -8zM809 233c0 -118 -61 -179 -175 -179c-120 0 -162 64 -166 125v5c0 28 15 53 40 54h4c27 0 44 -22 44 -56c0 -60 5 -89 71 -95h9c54 0 94 47 94 125c0 7 0 15 -1 22c-9 97 -66 144 -160 146c-10 0 -15 3 -15 13c0 11 7 12 16 12c89 2 151 37 151 126v12
c-4 66 -37 109 -94 109c-51 0 -75 -20 -75 -48c0 -10 3 -21 10 -33c4 -7 6 -14 6 -21c0 -22 -19 -42 -43 -42c-4 0 -9 1 -13 2c-24 6 -32 25 -32 48c0 68 57 126 153 126c104 0 161 -62 161 -142c0 -90 -53 -142 -122 -145c-13 0 -13 -5 0 -5c72 0 137 -70 137 -159z" />
    <glyph glyph-name="uni246D" unicode="&#x246d;" 
d="M988 368c0 -269 -219 -488 -488 -488s-488 219 -488 488s219 488 488 488s488 -219 488 -488zM942 368c0 244 -198 441 -442 441s-441 -197 -441 -441s197 -442 441 -442s442 198 442 442zM804 244c0 -17 -4 -17 -14 -17h-65v-109c0 -14 8 -21 20 -25
c10 -4 27 -10 39 -13c6 -1 8 -4 8 -9s-2 -7 -10 -7h-195c-7 0 -9 2 -9 7c0 4 1 6 4 8c1 0 2 1 3 1c14 3 30 7 45 13c12 4 20 11 20 25v109h-192c-12 0 -13 4 -13 17c0 15 2 17 6 24c61 101 161 272 240 410c3 5 7 7 15 7h5c12 -2 14 -6 14 -16v-408h65c10 0 14 -1 14 -17z
M421 72c0 -6 -2 -8 -9 -8h-203c-7 0 -9 2 -9 8c0 4 2 7 7 8c12 3 31 7 45 13c12 5 20 11 20 25c0 74 1 178 1 253c0 87 -1 175 -1 227c0 10 -1 14 -9 14c-9 0 -26 -4 -58 -13h-2c-5 0 -8 5 -8 10c0 4 2 7 5 9c55 22 94 43 140 66c1 1 3 1 5 1c3 0 6 -2 6 -8v-3
c-2 -26 -3 -206 -3 -303c0 -87 1 -179 1 -253c0 -14 8 -20 20 -25s29 -10 45 -13c6 -1 7 -4 7 -8zM655 542l-4 1c-35 -63 -109 -192 -162 -282h161s1 217 5 281z" />
    <glyph glyph-name="uni246E" unicode="&#x246e;" 
d="M988 368c0 -269 -219 -488 -488 -488s-488 219 -488 488s219 488 488 488s488 -219 488 -488zM942 368c0 244 -198 441 -442 441s-441 -197 -441 -441s197 -442 441 -442s442 198 442 442zM411 72c0 -6 -2 -8 -9 -8h-203c-7 0 -9 2 -9 8c0 4 2 7 7 8c12 3 31 7 45 13
c12 5 20 11 20 25c0 74 1 178 1 253c0 87 -1 175 -1 227c0 10 -1 14 -9 14c-9 0 -26 -4 -58 -13h-2c-5 0 -8 5 -8 10c0 4 2 7 5 9c55 22 94 43 140 66c1 1 3 1 5 1c3 0 6 -2 6 -8v-3c-2 -26 -3 -206 -3 -303c0 -87 1 -179 1 -253c0 -14 8 -20 20 -25s29 -10 45 -13
c6 -1 7 -4 7 -8zM807 249c0 -121 -51 -202 -179 -202c-108 0 -159 73 -160 130v4c0 27 10 49 39 51h2c25 0 43 -16 43 -48v-8v-11c0 -42 17 -84 72 -84c68 0 105 49 105 143v15c-4 95 -38 161 -115 161c-44 0 -78 -26 -102 -61c-5 -7 -9 -10 -13 -10c-3 0 -5 1 -8 2
c-3 2 -5 7 -5 14c0 4 1 8 1 13c8 96 16 209 21 305c0 4 3 6 9 6h208c17 0 32 3 41 11c4 3 6 5 9 5h2c2 -1 3 -3 3 -5c0 -1 0 -2 -1 -4c-5 -23 -11 -52 -14 -75c-1 -4 -2 -6 -8 -6h-221c0 0 -12 -152 -15 -202v-3c0 -3 1 -4 2 -4c2 0 4 2 6 5c17 21 52 45 87 47h15
c109 0 176 -74 176 -189z" />
    <glyph glyph-name="uni246F" unicode="&#x246f;" 
d="M988 368c0 -269 -219 -488 -488 -488s-488 219 -488 488s219 488 488 488s488 -219 488 -488zM942 368c0 244 -198 441 -442 441s-441 -197 -441 -441s197 -442 441 -442s442 198 442 442zM416 72c0 -6 -2 -8 -9 -8h-203c-7 0 -9 2 -9 8c0 4 2 7 7 8c12 3 31 7 45 13
c12 5 20 11 20 25c0 74 1 178 1 253c0 87 -1 175 -1 227c0 10 -1 14 -9 14c-9 0 -26 -4 -58 -13h-2c-5 0 -8 5 -8 10c0 4 2 7 5 9c55 22 94 43 140 66c1 1 3 1 5 1c3 0 6 -2 6 -8v-3c-2 -26 -3 -206 -3 -303c0 -87 1 -179 1 -253c0 -14 8 -20 20 -25s29 -10 45 -13
c6 -1 7 -4 7 -8zM809 247c0 -113 -50 -194 -164 -194s-176 82 -176 285c0 217 43 348 185 348c87 0 138 -58 138 -127c0 -24 -12 -45 -41 -46h-4c-27 0 -36 18 -36 43v8c0 5 1 10 1 15c0 46 -18 75 -61 75c-88 0 -112 -89 -112 -287c24 48 63 74 114 74h2
c99 0 154 -71 154 -194zM736 246c-2 109 -42 153 -95 153c-61 0 -96 -52 -96 -130v-3c2 -116 39 -177 101 -177c61 0 91 51 90 157z" />
    <glyph glyph-name="uni2470" unicode="&#x2470;" 
d="M988 368c0 -269 -219 -488 -488 -488s-488 219 -488 488s219 488 488 488s488 -219 488 -488zM942 368c0 244 -198 441 -442 441s-441 -197 -441 -441s197 -442 441 -442s442 198 442 442zM421 72c0 -6 -2 -8 -9 -8h-203c-7 0 -9 2 -9 8c0 4 2 7 7 8c12 3 31 7 45 13
c12 5 20 11 20 25c0 74 1 178 1 253c0 87 -1 175 -1 227c0 10 -1 14 -9 14c-9 0 -26 -4 -58 -13h-2c-5 0 -8 5 -8 10c0 4 2 7 5 9c55 22 94 43 140 66c1 1 3 1 5 1c3 0 6 -2 6 -8v-3c-2 -26 -3 -206 -3 -303c0 -87 1 -179 1 -253c0 -14 8 -20 20 -25s29 -10 45 -13
c6 -1 7 -4 7 -8zM812 662c0 -3 -1 -7 -4 -11c-117 -165 -153 -300 -165 -556c-1 -24 -8 -47 -53 -47c-29 0 -39 12 -39 32c0 4 0 8 1 12c28 197 94 385 188 501h-147c-72 0 -90 -16 -114 -68c-3 -6 -4 -7 -10 -7c-3 1 -5 3 -5 7v2c9 47 15 95 19 130c1 10 4 11 12 11h305
c8 0 12 -2 12 -6z" />
    <glyph glyph-name="uni2471" unicode="&#x2471;" 
d="M988 368c0 -269 -219 -488 -488 -488s-488 219 -488 488s219 488 488 488s488 -219 488 -488zM942 368c0 244 -198 441 -442 441s-441 -197 -441 -441s197 -442 441 -442s442 198 442 442zM406 72c0 -6 -2 -8 -9 -8h-203c-7 0 -9 2 -9 8c0 4 2 7 7 8c12 3 31 7 45 13
c12 5 20 11 20 25c0 74 1 178 1 253c0 87 -1 175 -1 227c0 10 -1 14 -9 14c-9 0 -26 -4 -58 -13h-2c-5 0 -8 5 -8 10c0 4 2 7 5 9c55 22 94 43 140 66c1 1 3 1 5 1c3 0 6 -2 6 -8v-3c-2 -26 -3 -206 -3 -303c0 -87 1 -179 1 -253c0 -14 8 -20 20 -25s29 -10 45 -13
c6 -1 7 -4 7 -8zM805 224c0 -113 -62 -173 -170 -173c-109 0 -172 61 -172 169c0 76 38 132 111 167c-62 39 -92 81 -92 145v3c1 85 52 148 151 148c100 0 153 -61 154 -146c0 -64 -30 -104 -98 -138c73 -39 116 -97 116 -175zM727 538c0 67 -35 114 -94 114
c-55 0 -84 -43 -84 -101v-9c3 -48 32 -85 105 -122c46 25 73 64 73 118zM726 210c0 64 -31 106 -118 153c-55 -29 -78 -70 -78 -141c0 -74 36 -136 102 -136c64 0 94 44 94 124z" />
    <glyph glyph-name="uni2472" unicode="&#x2472;" 
d="M988 368c0 -269 -219 -488 -488 -488s-488 219 -488 488s219 488 488 488s488 -219 488 -488zM942 368c0 244 -198 441 -442 441s-441 -197 -441 -441s197 -442 441 -442s442 198 442 442zM411 72c0 -6 -2 -8 -9 -8h-203c-7 0 -9 2 -9 8c0 4 2 7 7 8c12 3 31 7 45 13
c12 5 20 11 20 25c0 74 1 178 1 253c0 87 -1 175 -1 227c0 10 -1 14 -9 14c-9 0 -26 -4 -58 -13h-2c-5 0 -8 5 -8 10c0 4 2 7 5 9c55 22 94 43 140 66c1 1 3 1 5 1c3 0 6 -2 6 -8v-3c-2 -26 -3 -206 -3 -303c0 -87 1 -179 1 -253c0 -14 8 -20 20 -25s29 -10 45 -13
c6 -1 7 -4 7 -8zM806 398c0 -217 -46 -345 -186 -345c-96 0 -141 58 -145 126v5c0 24 12 41 38 42h4c28 0 41 -21 41 -49v-3v-5c0 -49 14 -84 63 -84c81 0 111 79 111 268v19c-21 -49 -60 -74 -113 -74h-2c-96 0 -154 67 -154 191c0 116 55 194 166 194s177 -82 177 -285z
M726 470c0 119 -36 180 -97 180c-63 0 -93 -53 -93 -155v-5c1 -107 42 -153 95 -153c65 0 95 55 95 133z" />
    <glyph glyph-name="uni2473" unicode="&#x2473;" 
d="M988 368c0 -269 -219 -488 -488 -488s-488 219 -488 488s219 488 488 488s488 -219 488 -488zM942 368c0 244 -198 441 -442 441s-441 -197 -441 -441c0 -111 40 -212 107 -289c1 2 1 5 2 8c23 105 65 178 152 258c61 56 77 125 77 184c0 79 -24 123 -76 123
c-48 0 -75 -24 -75 -61c0 -17 6 -37 18 -58c4 -7 6 -15 6 -22c0 -24 -19 -45 -42 -45c-5 0 -10 1 -15 3c-27 11 -32 38 -32 57c0 85 45 157 146 157c90 0 147 -64 147 -160c0 -82 -26 -143 -132 -219c-63 -44 -101 -109 -118 -172c43 0 77 1 129 5c70 6 87 18 118 80
c2 4 3 5 6 5h3c2 -1 4 -2 4 -5v-2c-12 -53 -19 -103 -23 -139c-1 -8 -3 -11 -7 -11h-275c80 -86 195 -139 321 -139c244 0 442 198 442 442zM845 369c0 -197 -49 -316 -163 -316c-113 0 -162 116 -162 316c0 191 47 314 162 314c114 0 163 -119 163 -314zM772 368
c0 211 -35 284 -90 284s-90 -73 -90 -284c0 -214 35 -282 90 -282s90 68 90 282z" />
    <glyph glyph-name="uni2160" unicode="&#x2160;" 
d="M639 8c0 -6 -3 -8 -10 -8h-257c-7 0 -10 2 -10 8c0 4 1 6 5 8c1 0 2 1 4 1c13 2 39 9 55 16c14 7 22 16 22 32c0 87 1 193 1 307c0 127 -1 219 -1 306c0 16 -8 25 -22 32c-16 7 -42 14 -55 16c-7 1 -9 4 -9 9c0 6 3 8 10 8h257c7 0 10 -2 10 -8c0 -4 -1 -6 -5 -8
c-1 0 -2 -1 -4 -1c-13 -2 -39 -9 -55 -16c-14 -7 -22 -16 -22 -32c0 -87 -1 -179 -1 -306c0 -114 1 -220 1 -307c0 -16 8 -25 22 -32c16 -7 42 -14 55 -16c7 -1 9 -4 9 -9z" />
    <glyph glyph-name="uni2161" unicode="&#x2161;" 
d="M817 8c0 -6 -3 -8 -10 -8h-255c-6 0 -10 2 -10 8c0 4 1 6 5 8c1 0 2 1 4 1c13 2 39 9 56 16c13 7 21 16 21 32c0 87 1 193 1 307c0 127 -1 219 -1 306c0 16 -8 25 -21 32c-17 7 -43 14 -56 16c-7 1 -9 4 -9 9c0 6 4 8 10 8h255c7 0 10 -2 10 -8c0 -4 -1 -6 -5 -8
c-1 0 -2 -1 -4 -1c-13 -2 -39 -9 -55 -16c-14 -7 -22 -16 -22 -32c0 -87 -1 -179 -1 -306c0 -114 1 -220 1 -307c0 -16 8 -25 22 -32c16 -7 42 -14 55 -16c7 -1 9 -4 9 -9zM458 8c0 -6 -3 -8 -10 -8h-255c-6 0 -10 2 -10 8c0 4 1 6 5 8c1 0 2 1 4 1c13 2 39 9 56 16
c13 7 21 16 21 32c0 87 1 193 1 307c0 127 -1 219 -1 306c0 16 -8 25 -21 32c-17 7 -43 14 -56 16c-7 1 -9 4 -9 9c0 6 4 8 10 8h255c7 0 10 -2 10 -8c0 -4 -1 -6 -5 -8c-1 0 -2 -1 -4 -1c-13 -2 -39 -9 -55 -16c-14 -7 -22 -16 -22 -32c0 -87 -1 -179 -1 -306
c0 -114 1 -220 1 -307c0 -16 8 -25 22 -32c16 -7 42 -14 55 -16c7 -1 9 -4 9 -9z" />
    <glyph glyph-name="uni2162" unicode="&#x2162;" 
d="M873 8c0 -6 -3 -8 -10 -8h-725c-7 0 -10 2 -10 8c0 4 1 6 5 8c1 0 2 1 4 1c13 2 39 9 55 16c14 7 22 16 22 32c0 87 1 193 1 307c0 127 -1 219 -1 306c0 16 -8 25 -22 32c-16 7 -42 14 -55 16c-7 1 -9 4 -9 9c0 6 3 8 10 8h725c7 0 10 -2 10 -8c0 -4 -1 -6 -5 -8
c-1 0 -2 -1 -4 -1c-12 -2 -38 -9 -55 -16c-14 -7 -22 -16 -22 -32c0 -87 -1 -179 -1 -306c0 -114 1 -220 1 -307c0 -16 8 -25 22 -32c17 -7 43 -14 55 -16c7 -1 9 -4 9 -9zM687 372c0 127 -1 219 -1 306c0 16 -8 25 -22 32c-27 13 -65 13 -94 0c-14 -7 -22 -16 -22 -32
c0 -87 -1 -179 -1 -306c0 -114 1 -220 1 -307c0 -16 8 -25 22 -32c27 -13 65 -13 94 0c14 7 22 16 22 32c0 87 1 193 1 307zM449 372c0 127 -1 219 -1 306c0 16 -8 25 -22 32c-26 12 -61 12 -89 0c-14 -7 -22 -16 -22 -32c0 -87 -1 -179 -1 -306c0 -114 1 -220 1 -307
c0 -16 8 -25 22 -32c26 -12 61 -12 89 0c14 7 22 16 22 32c0 87 1 193 1 307z" />
    <glyph glyph-name="uni2163" unicode="&#x2163;" 
d="M958 735c0 -6 -2 -9 -7 -11c-61 -17 -89 -36 -102 -78c-53 -168 -134 -436 -199 -643c-3 -10 -7 -17 -16 -17c-8 0 -12 6 -17 18c-57 153 -177 476 -256 683c-6 17 -24 25 -40 25c-4 0 -9 -1 -13 -2c-14 -7 -22 -16 -22 -32c0 -87 -1 -179 -1 -306c0 -114 1 -220 1 -307
c0 -16 8 -25 22 -32c17 -7 43 -14 55 -16c7 -1 9 -4 9 -9c0 -6 -3 -8 -10 -8h-253c-7 0 -10 2 -10 8c0 4 1 6 5 8c1 0 2 1 4 1c13 2 39 9 55 16c14 7 22 16 22 32c0 87 1 193 1 307c0 127 -1 219 -1 306c0 16 -8 25 -22 32c-16 7 -42 14 -55 16c-7 1 -9 4 -9 9c0 6 3 8 10 8
h434c5 0 9 -3 9 -8s-2 -9 -9 -10c-32 -8 -63 -7 -63 -29c0 -3 1 -6 2 -10c57 -155 135 -368 184 -503c41 136 97 319 135 460c2 9 3 16 3 23c0 30 -22 46 -77 58c-6 2 -9 5 -9 11s1 8 10 8h219c7 0 11 -2 11 -8z" />
    <glyph glyph-name="uni2164" unicode="&#x2164;" 
d="M890 735c0 -6 -3 -9 -8 -11c-66 -14 -90 -34 -107 -78c-71 -179 -213 -551 -248 -644c-4 -8 -9 -16 -18 -16c-8 0 -14 6 -19 18c-61 145 -204 478 -296 683c-4 11 -17 21 -30 26c-13 6 -32 9 -46 14c-4 1 -7 2 -7 8s2 8 7 8h264c6 0 8 -3 8 -8c0 -6 -2 -10 -10 -11
c-45 -8 -64 -18 -64 -30c0 -1 0 -3 1 -4c62 -154 167 -404 226 -535c58 148 131 344 181 488c2 7 4 14 4 20c0 31 -32 47 -78 61c-6 3 -9 5 -9 11s4 8 10 8h228c7 0 11 -2 11 -8z" />
    <glyph glyph-name="uni2165" unicode="&#x2165;" 
d="M904 8c0 -6 -3 -8 -10 -8h-245c-8 0 -12 2 -12 8c0 5 2 8 9 10c14 4 38 10 53 17c13 6 20 16 20 29c0 87 1 194 1 308c0 127 -1 223 -1 310c0 16 -14 31 -30 32h-3c-28 0 -50 -23 -64 -68c-49 -162 -137 -456 -196 -643c-4 -12 -10 -17 -18 -17s-14 6 -18 18
c-54 151 -175 476 -256 683c-4 11 -16 21 -30 26c-12 5 -30 9 -46 13c-5 1 -8 4 -8 9c0 6 3 8 8 8h259c7 0 9 -4 9 -8c0 -5 -1 -9 -10 -10c-43 -7 -61 -19 -61 -31c0 -1 1 -3 1 -4c57 -165 134 -373 183 -507c44 141 93 307 134 461c2 7 3 14 3 20c0 30 -26 44 -76 61
c-6 2 -9 5 -9 10c0 6 4 8 10 8h393c7 0 10 -2 10 -8c0 -4 -1 -6 -5 -8c-1 0 -2 -1 -4 -1c-8 -2 -36 -8 -52 -15c-14 -7 -22 -16 -22 -29c0 -87 -1 -183 -1 -310c0 -114 1 -221 1 -308c0 -15 9 -25 22 -31c14 -7 39 -11 53 -15c5 -1 8 -4 8 -10z" />
    <glyph glyph-name="uni2166" unicode="&#x2166;" 
d="M955 9c0 -7 -4 -9 -11 -9h-424c-9 0 -10 2 -10 9c0 4 1 6 4 8c1 0 3 1 4 1c6 1 28 7 43 13c16 7 26 17 26 33c0 87 1 194 1 308c0 127 -1 223 -1 310c0 14 -10 29 -25 30c-21 -4 -34 -29 -43 -66c-45 -168 -141 -533 -169 -643c-3 -10 -10 -17 -17 -17c-8 0 -15 6 -18 17
c-63 204 -143 460 -217 686c-8 23 -28 29 -66 37c-5 1 -6 4 -6 8c0 6 1 9 7 9h232c5 0 8 -3 8 -8s-1 -8 -8 -10c-37 -9 -57 -19 -57 -32c0 -1 1 -2 1 -3c45 -158 109 -369 150 -508c37 140 84 322 120 464c2 7 3 14 3 21c0 32 -23 49 -62 59c-5 1 -8 4 -8 9c0 6 3 8 11 8
h521c7 0 10 -2 10 -8c0 -4 -1 -6 -4 -8c-1 0 -2 -1 -3 -1c-9 -3 -26 -6 -40 -12c-17 -7 -28 -16 -28 -32c0 -87 -1 -183 -1 -310c0 -114 1 -221 1 -308c0 -14 8 -24 21 -31c16 -9 32 -13 47 -15c6 -1 8 -4 8 -9zM783 372c0 127 -1 223 -1 310c0 13 -7 24 -20 31
c-9 5 -19 7 -30 7c-12 0 -24 -3 -34 -9c-11 -6 -16 -16 -16 -29c0 -87 -1 -183 -1 -310c0 -114 1 -221 1 -308c0 -15 8 -25 20 -33c8 -5 18 -7 29 -7c13 0 27 4 36 11c10 7 15 16 15 29c0 87 1 194 1 308z" />
    <glyph glyph-name="uni2167" unicode="&#x2167;" 
d="M963 9c0 -7 -3 -9 -10 -9h-542c-6 0 -11 2 -11 8c0 5 2 7 9 9c10 3 31 8 46 15c18 8 25 16 25 32c0 87 1 194 1 308c0 127 -1 223 -1 310c0 11 -7 24 -19 25c-13 -4 -30 -25 -37 -61c-34 -169 -102 -509 -130 -642c-2 -10 -9 -18 -16 -18c-9 0 -14 8 -17 20
c-42 168 -120 477 -175 683c-6 21 -26 28 -66 37c-4 1 -6 4 -6 8c0 6 1 9 7 9h223c5 0 7 -4 7 -8c0 -6 -1 -8 -8 -10c-36 -9 -55 -21 -55 -33v-2c36 -163 77 -334 112 -487c29 143 60 302 87 443c1 7 2 13 2 19c0 31 -19 48 -61 61c-4 2 -8 4 -8 9c0 6 3 8 8 8h625
c7 0 9 -2 9 -8s-2 -8 -8 -9c-10 -3 -25 -8 -40 -13c-14 -6 -26 -16 -26 -31c0 -87 -1 -183 -1 -310c0 -114 1 -221 1 -308c0 -15 8 -25 20 -31c14 -8 31 -12 47 -15c6 -1 8 -4 8 -9zM805 372c0 127 -1 223 -1 310c0 19 -17 34 -36 35h-14c-14 -7 -28 -19 -28 -35
c0 -87 -1 -183 -1 -310c0 -114 1 -221 1 -308c0 -12 6 -23 18 -30c5 -3 13 -5 20 -5c9 0 18 2 23 6c11 7 17 15 17 29c0 87 1 194 1 308zM643 372c0 127 -1 223 -1 310c0 15 -9 27 -22 32c-5 2 -10 3 -16 3s-13 -1 -17 -3c-14 -5 -21 -16 -21 -32c0 -87 -1 -183 -1 -310
c0 -114 1 -221 1 -308c0 -12 6 -22 16 -29c5 -4 14 -7 23 -7c8 0 16 2 22 6c10 6 15 18 15 30c0 87 1 194 1 308z" />
    <glyph glyph-name="uni2168" unicode="&#x2168;" 
d="M940 9c0 -7 -3 -9 -8 -9h-219c-7 0 -9 2 -10 7c0 5 1 9 10 11c26 5 38 13 38 24c0 3 -1 7 -3 11c-42 93 -84 182 -127 268c-38 -82 -78 -161 -110 -234c-3 -7 -5 -14 -5 -21c0 -8 3 -16 8 -22c9 -12 26 -20 48 -26c6 -2 9 -5 9 -10c0 -6 -2 -8 -10 -8h-446
c-8 0 -12 1 -12 7c0 5 1 9 8 10c12 3 39 10 54 17c13 7 20 17 20 30c0 87 1 194 1 308c0 127 0 220 -1 306c0 16 -9 26 -21 32c-15 6 -41 13 -53 16c-7 1 -8 5 -8 10c0 6 4 7 12 7h472c5 0 9 -4 9 -8c0 -5 -2 -8 -10 -10c-26 -6 -43 -14 -43 -26c0 -2 0 -4 1 -6
c25 -56 65 -135 109 -225c31 64 63 134 84 185c5 12 7 22 7 30c0 21 -16 31 -45 43c-8 3 -10 5 -10 10c0 6 3 7 11 7h179c8 0 11 -1 11 -7c0 -5 -3 -9 -9 -10c-50 -14 -77 -38 -96 -76c-38 -75 -72 -145 -109 -224c60 -121 128 -253 192 -374c8 -17 37 -29 64 -35
c5 -1 8 -3 8 -8zM599 364c-61 125 -116 235 -167 330c-9 18 -30 26 -59 26c-54 0 -86 -13 -86 -38c0 -87 -1 -183 -1 -310c0 -114 1 -221 1 -308c0 -25 27 -39 73 -39c51 0 79 21 100 61c47 92 95 186 139 278z" />
    <glyph glyph-name="uni2169" unicode="&#x2169;" 
d="M872 9c0 -6 -3 -9 -9 -9h-264c-6 0 -8 4 -8 9s2 7 10 9c38 6 57 12 57 24c0 3 -2 7 -4 11c-49 83 -111 176 -178 278c-58 -87 -110 -166 -148 -226c-7 -10 -10 -20 -10 -29c0 -25 25 -44 63 -57c6 -3 10 -5 10 -10c0 -7 -3 -9 -13 -9h-228c-6 0 -10 2 -10 9c0 6 2 9 7 10
c54 14 88 37 118 78c64 89 121 172 189 270c-86 132 -161 246 -214 322c-4 6 -20 20 -34 25c-12 4 -24 8 -35 11c-7 2 -8 4 -8 10s2 8 9 8h240c6 0 8 -3 8 -7c0 -5 0 -9 -11 -11c-34 -7 -48 -12 -48 -22c0 -3 2 -6 4 -10c29 -49 87 -139 152 -236c47 71 90 138 120 188
c7 11 11 21 11 31c0 4 -1 7 -2 11c-5 16 -25 29 -57 37c-6 2 -9 5 -9 11s4 8 10 8h212c6 0 10 -2 10 -8s-3 -9 -9 -11c-60 -13 -85 -35 -110 -72c-43 -62 -98 -149 -151 -230c83 -127 169 -256 246 -368c6 -8 19 -19 33 -24c11 -4 27 -9 44 -12c5 -1 7 -4 7 -9z" />
    <glyph glyph-name="Japan1.8061" 
d="M759 372c0 -208 -70 -387 -259 -387c-187 0 -257 172 -257 387c0 199 67 385 257 385c189 0 259 -179 259 -385zM930 63c0 -35 -30 -68 -64 -68c-33 0 -64 33 -64 68c0 38 31 70 64 70c34 0 64 -32 64 -70zM652 371c0 220 -57 348 -152 348s-152 -128 -152 -348
c0 -228 57 -345 152 -345s152 117 152 345z" />
    <glyph glyph-name="uni2488" unicode="&#x2488;" 
d="M666 7c0 -6 -1 -7 -10 -7h-302c-7 0 -11 1 -11 7c0 8 5 9 9 10c62 9 100 20 100 48v589c0 12 -5 18 -17 18c-13 0 -35 -7 -68 -21c-1 -1 -3 -1 -4 -1c-6 0 -11 7 -11 14c0 5 3 9 8 11c70 26 129 55 187 81c6 3 13 -1 13 -12v-679c0 -42 39 -41 97 -48c7 -1 9 -2 9 -10z
M930 63c0 -35 -30 -68 -64 -68c-33 0 -64 33 -64 68c0 38 31 70 64 70c34 0 64 -32 64 -70z" />
    <glyph glyph-name="uni2489" unicode="&#x2489;" 
d="M740 184c-21 -72 -29 -128 -34 -170c-2 -10 -4 -14 -12 -14h-453c-6 0 -9 4 -9 10c0 7 3 17 7 27c40 117 123 217 242 305c117 81 136 153 136 224c0 95 -59 150 -137 150c-80 0 -122 -29 -122 -77c0 -34 26 -49 26 -83c-1 -27 -22 -57 -58 -57c-46 0 -63 37 -63 73
c0 92 75 185 225 185c145 0 236 -80 236 -198c0 -104 -39 -177 -212 -268c-95 -54 -166 -134 -194 -208h54c48 0 119 1 173 6c81 8 134 10 179 98c1 3 3 4 6 4c1 0 2 -1 4 -1c3 -1 6 -2 6 -5v-1zM930 63c0 -35 -30 -68 -64 -68c-33 0 -64 33 -64 68c0 38 31 70 64 70
c34 0 64 -32 64 -70z" />
    <glyph glyph-name="uni248A" unicode="&#x248a;" 
d="M752 202c0 -144 -104 -216 -260 -216c-158 0 -247 74 -247 156c0 28 11 61 50 61c106 0 12 -179 194 -179c85 0 157 57 157 160c0 129 -76 197 -230 199c-14 0 -22 3 -22 17c0 12 6 15 26 16c121 4 206 38 206 158c0 89 -70 144 -147 144c-67 0 -116 -25 -116 -58
c0 -32 17 -46 17 -67c0 -32 -20 -51 -56 -51c-41 0 -58 28 -58 60c0 83 97 155 224 155c149 0 232 -78 232 -178c0 -108 -71 -168 -172 -176c-11 0 -17 -2 -17 -3c0 -2 6 -3 18 -3c104 -1 201 -87 201 -195zM930 63c0 -35 -30 -68 -64 -68c-33 0 -64 33 -64 68
c0 38 31 70 64 70c34 0 64 -32 64 -70z" />
    <glyph glyph-name="uni248B" unicode="&#x248b;" 
d="M763 206c0 -21 -3 -22 -15 -22h-130v-117c0 -24 11 -41 78 -50c7 -1 9 -2 9 -10c0 -6 -4 -7 -13 -7h-263c-10 0 -14 1 -14 7c0 8 2 9 9 10c67 11 90 25 90 50v117h-299c-20 0 -27 4 -27 22s4 22 17 38l362 496c7 13 12 17 30 17s21 -3 21 -20v-511h130c13 0 15 -1 15 -20
zM930 63c0 -35 -30 -68 -64 -68c-33 0 -64 33 -64 68c0 38 31 70 64 70c34 0 64 -32 64 -70zM519 596c0 1 -3 1 -4 0c-41 -59 -260 -370 -260 -370h258s1 276 6 370z" />
    <glyph glyph-name="uni248C" unicode="&#x248c;" 
d="M760 230c0 -148 -95 -244 -264 -244c-154 0 -243 78 -243 157c0 27 14 59 49 59c109 0 11 -176 190 -176c94 0 164 65 164 185c0 123 -80 208 -184 208c-71 0 -125 -24 -163 -73c-6 -7 -14 -12 -22 -12c-3 0 -6 0 -9 2c-5 3 -7 8 -7 14c0 5 2 11 2 16l42 371
c0 3 2 6 11 6h336c20 0 34 3 44 8c7 3 12 5 14 5c3 0 4 -2 4 -5c0 -2 0 -5 -1 -8c-4 -17 -14 -61 -19 -85c-1 -5 -3 -6 -5 -6h-347l-28 -240c-1 -3 0 -7 3 -7c2 0 4 1 6 4c28 32 95 56 160 56c159 0 267 -87 267 -235zM930 63c0 -35 -30 -68 -64 -68c-33 0 -64 33 -64 68
c0 38 31 70 64 70c34 0 64 -32 64 -70z" />
    <glyph glyph-name="uni248D" unicode="&#x248d;" 
d="M759 220c0 -135 -95 -234 -245 -234c-160 0 -272 100 -272 346c0 265 94 425 285 425c138 0 220 -81 220 -151c0 -28 -11 -53 -43 -53c-100 0 -32 165 -181 165c-116 0 -180 -109 -180 -354c32 62 115 93 182 93c137 0 234 -89 234 -237zM930 63c0 -35 -30 -68 -64 -68
c-33 0 -64 33 -64 68c0 38 31 70 64 70c34 0 64 -32 64 -70zM655 214c0 127 -72 193 -148 193c-84 0 -158 -70 -158 -159c0 -149 81 -221 166 -221c83 0 140 66 140 187z" />
    <glyph glyph-name="uni248E" unicode="&#x248e;" 
d="M773 737c0 -3 -2 -8 -8 -17c-176 -222 -234 -391 -254 -673c-2 -28 -11 -61 -74 -61c-42 0 -55 23 -55 47c0 4 0 8 1 12c50 228 163 477 290 608h-244c-70 0 -112 -16 -155 -84c-2 -4 -4 -8 -9 -8c-1 0 -3 1 -4 1c-3 1 -4 2 -4 4c0 1 0 3 1 5c17 71 21 116 26 158
c2 10 4 14 12 14h462c10 0 15 -1 15 -6zM930 63c0 -35 -30 -68 -64 -68c-33 0 -64 33 -64 68c0 38 31 70 64 70c34 0 64 -32 64 -70z" />
    <glyph glyph-name="uni248F" unicode="&#x248f;" 
d="M763 197c0 -137 -100 -211 -263 -211c-157 0 -263 73 -263 208c0 95 56 168 169 203c-98 42 -140 105 -140 179c0 106 89 181 234 181c148 0 234 -77 234 -181c0 -73 -49 -145 -147 -171c111 -40 176 -113 176 -208zM930 63c0 -35 -30 -68 -64 -68c-33 0 -64 33 -64 68
c0 38 31 70 64 70c34 0 64 -32 64 -70zM653 573c0 85 -69 144 -156 144s-136 -49 -136 -131c0 -63 65 -116 171 -153c86 25 121 74 121 140zM654 175c0 81 -77 161 -195 195c-84 -30 -138 -86 -138 -170c0 -97 85 -172 178 -172c99 0 155 45 155 147z" />
    <glyph glyph-name="uni2490" unicode="&#x2490;" 
d="M756 411c0 -269 -94 -425 -285 -425c-138 0 -222 78 -222 149c0 28 12 54 43 54c103 0 32 -164 183 -164c116 0 180 109 180 354c-32 -62 -115 -92 -182 -92c-137 0 -234 88 -234 236c0 135 95 234 245 234c160 0 272 -100 272 -346zM930 63c0 -35 -30 -68 -64 -68
c-33 0 -64 33 -64 68c0 38 31 70 64 70c34 0 64 -32 64 -70zM649 495c0 149 -79 221 -166 221c-82 0 -140 -66 -140 -187c0 -127 72 -192 148 -192c84 0 158 69 158 158z" />
    <glyph glyph-name="uni2474" unicode="&#x2474;" 
d="M634 70c0 -5 -2 -7 -10 -7h-245c-8 0 -10 2 -10 7c0 4 1 6 4 8c1 0 3 1 4 1c18 3 45 7 61 13c12 5 20 11 20 25c0 74 1 178 1 253c0 87 -1 175 -1 227c0 10 -1 14 -10 14c-10 0 -31 -5 -71 -16h-2c-6 0 -9 5 -9 10c0 4 2 7 6 9c56 21 117 47 164 68c2 1 4 2 5 2
c3 0 6 -2 6 -8v-3c-2 -26 -2 -206 -2 -303v-253c0 -14 8 -20 21 -25c16 -6 42 -10 60 -13c6 -1 8 -4 8 -9zM990 368c-1 -200 -84 -347 -180 -434c-5 -5 -10 -7 -13 -7c-4 0 -6 2 -6 6c0 3 1 7 4 11c54 83 136 225 136 424s-82 341 -136 424c-3 4 -4 8 -4 11c0 4 2 6 6 6
c3 0 8 -2 13 -7c96 -87 180 -244 180 -434zM209 -67c0 -4 -2 -6 -6 -6c-3 0 -8 2 -13 7c-96 87 -179 234 -180 434c0 190 84 347 180 434c5 5 10 7 13 7c4 0 6 -2 6 -6c0 -3 -1 -7 -4 -11c-54 -83 -136 -225 -136 -424s82 -341 136 -424c3 -4 4 -8 4 -11z" />
    <glyph glyph-name="uni2475" unicode="&#x2475;" 
d="M720 217c-10 -44 -21 -105 -26 -139c-2 -11 -6 -11 -12 -11h-398c-8 0 -13 3 -13 10c0 4 2 10 5 18c31 87 88 165 199 247c74 53 141 115 141 186c0 78 -59 124 -126 124c-66 0 -115 -31 -115 -74c0 -13 5 -28 16 -44c4 -7 6 -14 6 -22c0 -24 -18 -48 -48 -48
c-5 0 -10 1 -15 2c-27 6 -40 26 -40 59c1 92 87 161 201 161c124 0 209 -67 209 -167c0 -82 -62 -144 -202 -219c-79 -42 -139 -104 -161 -165h23c44 0 139 1 199 5c83 7 109 17 141 81c1 2 3 6 7 6c2 0 3 -1 4 -1c4 -2 5 -3 5 -6v-3zM990 368c-1 -200 -84 -347 -180 -434
c-5 -5 -10 -7 -13 -7c-4 0 -6 2 -6 6c0 3 1 7 4 11c54 83 136 225 136 424s-82 341 -136 424c-3 4 -4 8 -4 11c0 4 2 6 6 6c3 0 8 -2 13 -7c96 -87 180 -244 180 -434zM209 -67c0 -4 -2 -6 -6 -6c-3 0 -8 2 -13 7c-96 87 -179 234 -180 434c0 190 84 347 180 434
c5 5 10 7 13 7c4 0 6 -2 6 -6c0 -3 -1 -7 -4 -11c-54 -83 -136 -225 -136 -424s82 -341 136 -424c3 -4 4 -8 4 -11z" />
    <glyph glyph-name="uni2476" unicode="&#x2476;" 
d="M717 235c0 -119 -91 -179 -224 -179c-131 0 -205 62 -215 130c-4 27 10 63 42 63c35 0 52 -19 53 -55c1 -60 37 -97 115 -104h10c65 0 133 53 133 130c0 4 -1 9 -1 13c-10 104 -88 148 -204 149c-12 0 -18 3 -18 13c0 12 6 14 21 14c99 2 183 35 183 124c0 4 -1 8 -1 12
c-6 67 -50 109 -124 109h-3c-61 -1 -102 -27 -102 -61c0 -9 3 -18 8 -27c3 -6 5 -12 5 -18c0 -22 -19 -44 -46 -44c-5 0 -9 1 -14 2c-24 6 -34 25 -34 48c0 68 85 132 191 132c126 0 201 -62 201 -142c0 -91 -72 -142 -157 -145c-8 0 -12 -1 -12 -2s5 -2 13 -2
c93 0 180 -71 180 -160zM990 368c-1 -200 -84 -347 -180 -434c-5 -5 -10 -7 -13 -7c-4 0 -6 2 -6 6c0 3 1 7 4 11c54 83 136 225 136 424s-82 341 -136 424c-3 4 -4 8 -4 11c0 4 2 6 6 6c3 0 8 -2 13 -7c96 -87 180 -244 180 -434zM209 -67c0 -4 -2 -6 -6 -6
c-3 0 -8 2 -13 7c-96 87 -179 234 -180 434c0 190 84 347 180 434c5 5 10 7 13 7c4 0 6 -2 6 -6c0 -3 -1 -7 -4 -11c-54 -83 -136 -225 -136 -424s82 -341 136 -424c3 -4 4 -8 4 -11z" />
    <glyph glyph-name="uni2477" unicode="&#x2477;" 
d="M717 244c0 -17 -4 -17 -15 -17h-120v-109c0 -14 8 -20 20 -25c16 -6 35 -10 50 -13c6 -1 7 -4 7 -9s-2 -7 -10 -7h-219c-8 0 -11 2 -11 7c0 4 1 6 4 8c1 0 3 1 4 1c14 3 36 7 51 13c13 5 21 11 21 25v109h-255c-13 0 -14 4 -14 17c0 15 1 17 6 24c95 122 204 266 311 410
c3 5 6 8 14 8c3 0 5 -1 8 -1c11 -3 13 -6 13 -16v-407h120c11 0 15 -1 15 -18zM990 368c-1 -200 -84 -347 -180 -434c-5 -5 -10 -7 -13 -7c-4 0 -6 2 -6 6c0 3 1 7 4 11c54 83 136 225 136 424s-82 341 -136 424c-3 4 -4 8 -4 11c0 4 2 6 6 6c3 0 8 -2 13 -7
c96 -87 180 -244 180 -434zM209 -67c0 -4 -2 -6 -6 -6c-3 0 -8 2 -13 7c-96 87 -179 234 -180 434c0 190 84 347 180 434c5 5 10 7 13 7c4 0 6 -2 6 -6c0 -3 -1 -7 -4 -11c-54 -83 -136 -225 -136 -424s82 -341 136 -424c3 -4 4 -8 4 -11zM504 553l-4 1
c-26 -36 -147 -195 -221 -292h220s1 227 5 291z" />
    <glyph glyph-name="uni2478" unicode="&#x2478;" 
d="M990 368c-1 -200 -84 -347 -180 -434c-5 -5 -10 -7 -13 -7c-4 0 -6 2 -6 6c0 3 1 7 4 11c54 83 136 225 136 424s-82 341 -136 424c-3 4 -4 8 -4 11c0 4 2 6 6 6c3 0 8 -2 13 -7c96 -87 180 -244 180 -434zM209 -67c0 -4 -2 -6 -6 -6c-3 0 -8 2 -13 7
c-96 87 -179 234 -180 434c0 190 84 347 180 434c5 5 10 7 13 7c4 0 6 -2 6 -6c0 -3 -1 -7 -4 -11c-54 -83 -136 -225 -136 -424s82 -341 136 -424c3 -4 4 -8 4 -11zM718 248c0 -121 -87 -199 -224 -199c-124 0 -198 55 -209 126c0 3 -1 5 -1 8c0 23 12 49 41 49
c32 0 49 -16 50 -54c1 -61 53 -99 117 -99c75 0 139 55 139 150v9c-4 100 -76 163 -159 163c-58 0 -103 -21 -135 -61c-5 -6 -11 -10 -19 -10c-2 0 -4 0 -7 1c-6 3 -8 6 -8 12c0 3 0 7 1 12c18 101 34 217 45 304c1 6 2 9 9 9h276c19 0 33 3 43 11c5 3 7 4 10 4h2
c1 -1 2 -2 2 -4s-1 -4 -1 -6c-4 -17 -13 -52 -17 -73c-1 -4 -3 -7 -8 -7h-288c-6 -33 -20 -127 -32 -202v-3c0 -2 1 -4 2 -4c2 0 3 1 5 3c20 22 76 47 119 50c8 1 17 1 25 1c127 0 222 -73 222 -190z" />
    <glyph glyph-name="uni2479" unicode="&#x2479;" 
d="M721 246c-1 -103 -77 -191 -213 -191h-7c-125 3 -230 85 -230 282c0 216 87 344 241 348h5c99 0 180 -60 186 -128v-6c0 -22 -14 -40 -37 -42h-6c-30 0 -47 22 -47 53v3c0 51 -43 86 -101 86c-92 0 -161 -78 -161 -279v-9c28 52 99 82 161 83h8c114 0 201 -79 201 -198
v-2zM990 368c-1 -200 -84 -347 -180 -434c-5 -5 -10 -7 -13 -7c-4 0 -6 2 -6 6c0 3 1 7 4 11c54 83 136 225 136 424s-82 341 -136 424c-3 4 -4 8 -4 11c0 4 2 6 6 6c3 0 8 -2 13 -7c96 -87 180 -244 180 -434zM209 -67c0 -4 -2 -6 -6 -6c-3 0 -8 2 -13 7
c-96 87 -179 234 -180 434c0 190 84 347 180 434c5 5 10 7 13 7c4 0 6 -2 6 -6c0 -3 -1 -7 -4 -11c-54 -83 -136 -225 -136 -424s82 -341 136 -424c3 -4 4 -8 4 -11zM638 240v5c-3 102 -65 160 -135 160h-2c-72 -1 -141 -55 -141 -139v-5c4 -108 73 -172 148 -173h2
c68 0 128 53 128 152z" />
    <glyph glyph-name="uni247A" unicode="&#x247a;" 
d="M990 368c-1 -200 -84 -347 -180 -434c-5 -5 -10 -7 -13 -7c-4 0 -6 2 -6 6c0 3 1 7 4 11c54 83 136 225 136 424s-82 341 -136 424c-3 4 -4 8 -4 11c0 4 2 6 6 6c3 0 8 -2 13 -7c96 -87 180 -244 180 -434zM209 -67c0 -4 -2 -6 -6 -6c-3 0 -8 2 -13 7
c-96 87 -179 234 -180 434c0 190 84 347 180 434c5 5 10 7 13 7c4 0 6 -2 6 -6c0 -3 -1 -7 -4 -11c-54 -83 -136 -225 -136 -424s82 -341 136 -424c3 -4 4 -8 4 -11zM736 639c0 -2 -2 -6 -6 -12c-138 -187 -207 -337 -222 -557c-2 -24 -14 -45 -62 -45c-33 0 -44 15 -44 33
c0 4 0 7 1 11c35 166 147 394 254 501h-226c-77 0 -95 -15 -127 -69c-2 -2 -4 -4 -8 -4h-3c-3 1 -5 2 -5 5v2c11 47 18 94 23 130c1 8 4 11 11 11h403c7 0 11 -2 11 -6z" />
    <glyph glyph-name="uni247B" unicode="&#x247b;" 
d="M726 226c0 -110 -93 -173 -226 -173c-128 0 -224 62 -224 174c0 73 57 134 146 163c-77 40 -120 86 -120 148v2c1 87 79 146 198 146c120 0 199 -62 200 -146v-2c0 -60 -53 -113 -128 -139c97 -40 154 -94 154 -173zM990 368c-1 -200 -84 -347 -180 -434
c-5 -5 -10 -7 -13 -7c-4 0 -6 2 -6 6c0 3 1 7 4 11c54 83 136 225 136 424s-82 341 -136 424c-3 4 -4 8 -4 11c0 4 2 6 6 6c3 0 8 -2 13 -7c96 -87 180 -244 180 -434zM209 -67c0 -4 -2 -6 -6 -6c-3 0 -8 2 -13 7c-96 87 -179 234 -180 434c0 190 84 347 180 434
c5 5 10 7 13 7c4 0 6 -2 6 -6c0 -3 -1 -7 -4 -11c-54 -83 -136 -225 -136 -424s82 -341 136 -424c3 -4 4 -8 4 -11zM631 542c-2 68 -65 113 -135 113c-71 0 -117 -42 -117 -109v-2c1 -51 64 -93 150 -126c69 23 103 66 102 124zM632 206v9c-3 65 -57 118 -168 155
c-67 -23 -120 -72 -120 -140v-4c3 -77 79 -139 153 -139c80 0 135 35 135 119z" />
    <glyph glyph-name="uni247C" unicode="&#x247c;" 
d="M990 368c-1 -200 -84 -347 -180 -434c-5 -5 -10 -7 -13 -7c-4 0 -6 2 -6 6c0 3 1 7 4 11c54 83 136 225 136 424s-82 341 -136 424c-3 4 -4 8 -4 11c0 4 2 6 6 6c3 0 8 -2 13 -7c96 -87 180 -244 180 -434zM209 -67c0 -4 -2 -6 -6 -6c-3 0 -8 2 -13 7
c-96 87 -179 234 -180 434c0 190 84 347 180 434c5 5 10 7 13 7c4 0 6 -2 6 -6c0 -3 -1 -7 -4 -11c-54 -83 -136 -225 -136 -424s82 -341 136 -424c3 -4 4 -8 4 -11zM736 393c0 -228 -87 -340 -241 -342h-2c-96 0 -183 64 -192 128v7c0 23 12 44 39 45h4c29 0 45 -21 47 -59
c3 -52 52 -87 104 -87c93 0 160 82 161 289c-36 -51 -104 -79 -163 -80h-5c-112 0 -202 71 -202 191v2c1 106 84 197 214 197h6c136 -3 230 -91 230 -291zM647 467v5c-3 107 -61 178 -148 179h-2c-65 0 -128 -59 -128 -155v-5c3 -106 66 -157 137 -158h4
c70 0 137 53 137 134z" />
    <glyph glyph-name="uni247D" unicode="&#x247d;" 
d="M421 72c0 -6 -2 -8 -9 -8h-203c-7 0 -9 2 -9 8c0 4 2 7 7 8c12 3 31 7 45 13c12 5 20 11 20 25c0 74 1 178 1 253c0 87 -1 175 -1 227c0 10 -1 14 -9 14c-9 0 -26 -4 -58 -13h-2c-5 0 -8 5 -8 10c0 4 2 7 5 9c55 22 94 43 140 66c1 1 3 1 5 1c3 0 6 -2 6 -8v-3
c-2 -26 -3 -206 -3 -303c0 -87 1 -179 1 -253c0 -14 8 -20 20 -25s29 -10 45 -13c6 -1 7 -4 7 -8zM990 368c-1 -200 -84 -347 -180 -434c-5 -5 -10 -7 -13 -7c-4 0 -6 2 -6 6c0 3 1 7 4 11c54 83 136 225 136 424s-82 341 -136 424c-3 4 -4 8 -4 11c0 4 2 6 6 6
c3 0 8 -2 13 -7c96 -87 180 -244 180 -434zM809 369c0 -197 -51 -316 -172 -316c-120 0 -171 116 -171 316c0 191 51 314 171 314c121 0 172 -119 172 -314zM209 -67c0 -4 -2 -6 -6 -6c-3 0 -8 2 -13 7c-96 87 -179 234 -180 434c0 190 84 347 180 434c5 5 10 7 13 7
c4 0 6 -2 6 -6c0 -3 -1 -7 -4 -11c-54 -83 -136 -225 -136 -424s82 -341 136 -424c3 -4 4 -8 4 -11zM730 368c0 211 -34 284 -93 284c-58 0 -91 -73 -91 -284c0 -214 33 -282 91 -282c59 0 93 68 93 282z" />
    <glyph glyph-name="uni247E" unicode="&#x247e;" 
d="M776 71c0 -5 -2 -8 -10 -8h-210c-7 0 -9 3 -9 8c0 4 2 7 7 8c15 3 31 8 47 13c12 5 20 11 20 25v253v227c0 10 -1 15 -10 15c-10 0 -30 -5 -67 -15h-2c-5 0 -8 5 -8 10c0 4 1 7 5 9c55 21 108 45 154 67c1 1 3 1 5 1c3 0 6 -2 6 -8v-3c-2 -25 -3 -206 -3 -303
c0 -86 1 -179 1 -253c0 -14 8 -20 20 -25c16 -5 30 -9 47 -13c5 -1 7 -4 7 -8zM444 71c0 -5 -2 -8 -10 -8h-209c-8 0 -10 3 -10 8c0 4 2 7 8 8c14 3 30 8 46 13c12 5 20 11 20 25v253v227c0 10 -1 15 -10 15c-10 0 -30 -5 -67 -15h-2c-5 0 -8 5 -8 10c0 4 1 7 5 9
c55 21 108 45 154 67c1 1 3 1 5 1c3 0 6 -2 6 -8v-3c-2 -25 -3 -206 -3 -303c0 -86 1 -179 1 -253c0 -14 8 -20 20 -25c16 -5 30 -9 47 -13c5 -1 7 -4 7 -8zM990 368c-1 -200 -84 -347 -180 -434c-5 -5 -10 -7 -13 -7c-4 0 -6 2 -6 6c0 3 1 7 4 11c54 83 136 225 136 424
s-82 341 -136 424c-3 4 -4 8 -4 11c0 4 2 6 6 6c3 0 8 -2 13 -7c96 -87 180 -244 180 -434zM209 -67c0 -4 -2 -6 -6 -6c-3 0 -8 2 -13 7c-96 87 -179 234 -180 434c0 190 84 347 180 434c5 5 10 7 13 7c4 0 6 -2 6 -6c0 -3 -1 -7 -4 -11c-54 -83 -136 -225 -136 -424
s82 -341 136 -424c3 -4 4 -8 4 -11z" />
    <glyph glyph-name="uni247F" unicode="&#x247f;" 
d="M421 72c0 -6 -2 -8 -9 -8h-203c-7 0 -9 2 -9 8c0 4 2 7 7 8c12 3 31 7 45 13c12 5 20 11 20 25c0 74 1 178 1 253c0 87 -1 175 -1 227c0 10 -1 14 -9 14c-9 0 -26 -4 -58 -13h-2c-5 0 -8 5 -8 10c0 4 2 7 5 9c55 22 94 43 140 66c1 1 3 1 5 1c3 0 6 -2 6 -8v-3
c-2 -26 -3 -206 -3 -303c0 -87 1 -179 1 -253c0 -14 8 -20 20 -25s29 -10 45 -13c6 -1 7 -4 7 -8zM795 214c-6 -26 -11 -52 -15 -76c-4 -23 -7 -45 -9 -63c-1 -8 -3 -11 -8 -11h-292c-10 0 -14 3 -14 10c0 3 1 7 2 12c25 105 71 177 162 258c66 55 82 125 82 184
c0 79 -26 123 -81 123c-51 0 -80 -24 -80 -61c0 -17 6 -37 20 -58c4 -7 6 -14 6 -21c0 -24 -20 -46 -45 -46c-5 0 -11 1 -16 3c-29 10 -34 38 -34 57c0 85 48 157 156 157c95 0 156 -64 156 -160c0 -82 -28 -144 -141 -219c-66 -45 -107 -109 -125 -172c46 0 82 1 137 5
c74 6 93 18 126 80c2 4 3 5 6 5h3c2 -1 4 -2 4 -5v-2zM990 368c-1 -200 -84 -347 -180 -434c-5 -5 -10 -7 -13 -7c-4 0 -6 2 -6 6c0 3 1 7 4 11c54 83 136 225 136 424s-82 341 -136 424c-3 4 -4 8 -4 11c0 4 2 6 6 6c3 0 8 -2 13 -7c96 -87 180 -244 180 -434zM209 -67
c0 -4 -2 -6 -6 -6c-3 0 -8 2 -13 7c-96 87 -179 234 -180 434c0 190 84 347 180 434c5 5 10 7 13 7c4 0 6 -2 6 -6c0 -3 -1 -7 -4 -11c-54 -83 -136 -225 -136 -424s82 -341 136 -424c3 -4 4 -8 4 -11z" />
    <glyph glyph-name="uni2480" unicode="&#x2480;" 
d="M421 72c0 -6 -2 -8 -9 -8h-203c-7 0 -9 2 -9 8c0 4 2 7 7 8c12 3 31 7 45 13c12 5 20 11 20 25c0 74 1 178 1 253c0 87 -1 175 -1 227c0 10 -1 14 -9 14c-9 0 -26 -4 -58 -13h-2c-5 0 -8 5 -8 10c0 4 2 7 5 9c55 22 94 43 140 66c1 1 3 1 5 1c3 0 6 -2 6 -8v-3
c-2 -26 -3 -206 -3 -303c0 -87 1 -179 1 -253c0 -14 8 -20 20 -25s29 -10 45 -13c6 -1 7 -4 7 -8zM799 233c0 -118 -61 -179 -175 -179c-120 0 -162 64 -166 125v5c0 28 15 53 40 54h4c27 0 44 -22 44 -56c0 -60 5 -89 71 -95h9c54 0 94 47 94 125c0 7 0 15 -1 22
c-9 97 -66 144 -160 146c-10 0 -15 3 -15 13c0 11 7 12 16 12c89 2 151 37 151 126v12c-4 66 -37 109 -94 109c-51 0 -75 -21 -75 -48c0 -10 3 -22 10 -33c4 -7 5 -14 5 -21c0 -22 -18 -42 -42 -42c-4 0 -9 1 -13 2c-24 6 -32 25 -32 48c0 68 57 126 153 126
c104 0 161 -62 161 -142c0 -90 -53 -143 -122 -145c-13 -1 -13 -5 0 -5c72 0 137 -70 137 -159zM990 368c-1 -200 -84 -347 -180 -434c-5 -5 -10 -7 -13 -7c-4 0 -6 2 -6 6c0 3 1 7 4 11c54 83 136 225 136 424s-82 341 -136 424c-3 4 -4 8 -4 11c0 4 2 6 6 6
c3 0 8 -2 13 -7c96 -87 180 -244 180 -434zM209 -67c0 -4 -2 -6 -6 -6c-3 0 -8 2 -13 7c-96 87 -179 234 -180 434c0 190 84 347 180 434c5 5 10 7 13 7c4 0 6 -2 6 -6c0 -3 -1 -7 -4 -11c-54 -83 -136 -225 -136 -424s82 -341 136 -424c3 -4 4 -8 4 -11z" />
    <glyph glyph-name="uni2481" unicode="&#x2481;" 
d="M799 244c0 -17 -4 -17 -14 -17h-65v-109c0 -14 8 -21 20 -25c10 -4 27 -10 39 -13c6 -1 8 -4 8 -9s-2 -7 -10 -7h-195c-7 0 -9 2 -9 7c0 4 1 6 4 8c1 0 2 1 3 1c14 3 30 7 45 13c12 4 20 11 20 25v109h-192c-12 0 -13 4 -13 17c0 15 1 17 6 24c60 101 161 272 240 410
c3 5 7 7 15 7h5c12 -2 14 -6 14 -16v-408h65c10 0 14 -1 14 -17zM421 72c0 -6 -2 -8 -9 -8h-203c-7 0 -9 2 -9 8c0 4 2 7 7 8c12 3 31 7 45 13c12 5 20 11 20 25c0 74 1 178 1 253c0 87 -1 175 -1 227c0 10 -1 14 -9 14c-9 0 -26 -4 -58 -13h-2c-5 0 -8 5 -8 10c0 4 2 7 5 9
c55 22 94 43 140 66c1 1 3 1 5 1c3 0 6 -2 6 -8v-3c-2 -26 -3 -206 -3 -303c0 -87 1 -179 1 -253c0 -14 8 -20 20 -25s29 -10 45 -13c6 -1 7 -4 7 -8zM990 368c-1 -200 -84 -347 -180 -434c-5 -5 -10 -7 -13 -7c-4 0 -6 2 -6 6c0 3 1 7 4 11c54 83 136 225 136 424
s-82 341 -136 424c-3 4 -4 8 -4 11c0 4 2 6 6 6c3 0 8 -2 13 -7c96 -87 180 -244 180 -434zM209 -67c0 -4 -2 -6 -6 -6c-3 0 -8 2 -13 7c-96 87 -179 234 -180 434c0 190 84 347 180 434c5 5 10 7 13 7c4 0 6 -2 6 -6c0 -3 -1 -7 -4 -11c-54 -83 -136 -225 -136 -424
s82 -341 136 -424c3 -4 4 -8 4 -11zM650 542l-4 1c-35 -63 -109 -192 -162 -282h161s1 217 5 281z" />
    <glyph glyph-name="uni2482" unicode="&#x2482;" 
d="M421 72c0 -6 -2 -8 -9 -8h-203c-7 0 -9 2 -9 8c0 4 2 7 7 8c12 3 31 7 45 13c12 5 20 11 20 25c0 74 1 178 1 253c0 87 -1 175 -1 227c0 10 -1 14 -9 14c-9 0 -26 -4 -58 -13h-2c-5 0 -8 5 -8 10c0 4 2 7 5 9c55 22 94 43 140 66c1 1 3 1 5 1c3 0 6 -2 6 -8v-3
c-2 -26 -3 -206 -3 -303c0 -87 1 -179 1 -253c0 -14 8 -20 20 -25s29 -10 45 -13c6 -1 7 -4 7 -8zM990 368c-1 -200 -84 -347 -180 -434c-5 -5 -10 -7 -13 -7c-4 0 -6 2 -6 6c0 3 1 7 4 11c54 83 136 225 136 424s-82 341 -136 424c-3 4 -4 8 -4 11c0 4 2 6 6 6
c3 0 8 -2 13 -7c96 -87 180 -244 180 -434zM209 -67c0 -4 -2 -6 -6 -6c-3 0 -8 2 -13 7c-96 87 -179 234 -180 434c0 190 84 347 180 434c5 5 10 7 13 7c4 0 6 -2 6 -6c0 -3 -1 -7 -4 -11c-54 -83 -136 -225 -136 -424s82 -341 136 -424c3 -4 4 -8 4 -11zM797 249
c0 -121 -51 -202 -179 -202c-108 0 -159 73 -160 130v4c0 27 10 50 39 51h4c24 0 41 -16 41 -48v-8v-11c0 -42 17 -84 72 -84c68 0 105 49 105 143v15c-4 95 -38 161 -115 161c-44 0 -78 -26 -102 -61c-5 -7 -9 -10 -13 -10c-3 0 -5 1 -8 2c-3 2 -5 6 -5 14c0 4 0 8 1 13
c7 96 16 209 21 305c0 4 3 6 9 6h208c17 0 32 3 41 11c4 3 6 5 9 5h2c2 -1 3 -3 3 -5c0 -1 0 -2 -1 -4c-5 -23 -11 -52 -14 -75c-1 -4 -2 -6 -8 -6h-221c0 0 -11 -152 -15 -202c0 -5 1 -7 2 -7c2 0 4 2 6 5c17 21 52 45 87 47h15c109 0 176 -74 176 -189z" />
    <glyph glyph-name="uni2483" unicode="&#x2483;" 
d="M421 72c0 -6 -2 -8 -9 -8h-203c-7 0 -9 2 -9 8c0 4 2 7 7 8c12 3 31 7 45 13c12 5 20 11 20 25c0 74 1 178 1 253c0 87 -1 175 -1 227c0 10 -1 14 -9 14c-9 0 -26 -4 -58 -13h-2c-5 0 -8 5 -8 10c0 4 2 7 5 9c55 22 94 43 140 66c1 1 3 1 5 1c3 0 6 -2 6 -8v-3
c-2 -26 -3 -206 -3 -303c0 -87 1 -179 1 -253c0 -14 8 -20 20 -25s29 -10 45 -13c6 -1 7 -4 7 -8zM799 247c0 -113 -50 -194 -164 -194s-176 82 -176 285c0 217 43 348 185 348c87 0 138 -58 138 -127c0 -24 -12 -45 -41 -46h-4c-27 0 -36 18 -36 43v8c0 5 1 10 1 15
c0 46 -18 75 -61 75c-88 0 -112 -89 -112 -287c24 48 63 74 114 74h2c99 0 154 -71 154 -194zM990 368c-1 -200 -84 -347 -180 -434c-5 -5 -10 -7 -13 -7c-4 0 -6 2 -6 6c0 3 1 7 4 11c54 83 136 225 136 424s-82 341 -136 424c-3 4 -4 8 -4 11c0 4 2 6 6 6c3 0 8 -2 13 -7
c96 -87 180 -244 180 -434zM209 -67c0 -4 -2 -6 -6 -6c-3 0 -8 2 -13 7c-96 87 -179 234 -180 434c0 190 84 347 180 434c5 5 10 7 13 7c4 0 6 -2 6 -6c0 -3 -1 -7 -4 -11c-54 -83 -136 -225 -136 -424s82 -341 136 -424c3 -4 4 -8 4 -11zM726 246c-2 109 -42 153 -95 153
c-62 0 -96 -53 -96 -133c3 -116 39 -177 101 -177c61 0 91 51 90 157z" />
    <glyph glyph-name="uni2484" unicode="&#x2484;" 
d="M421 72c0 -6 -2 -8 -9 -8h-203c-7 0 -9 2 -9 8c0 4 2 7 7 8c12 3 31 7 45 13c12 5 20 11 20 25c0 74 1 178 1 253c0 87 -1 175 -1 227c0 10 -1 14 -9 14c-9 0 -26 -4 -58 -13h-2c-5 0 -8 5 -8 10c0 4 2 7 5 9c55 22 94 43 140 66c1 1 3 1 5 1c3 0 6 -2 6 -8v-3
c-2 -26 -3 -206 -3 -303c0 -87 1 -179 1 -253c0 -14 8 -20 20 -25s29 -10 45 -13c6 -1 7 -4 7 -8zM990 368c-1 -200 -84 -347 -180 -434c-5 -5 -10 -7 -13 -7c-4 0 -6 2 -6 6c0 3 1 7 4 11c54 83 136 225 136 424s-82 341 -136 424c-3 4 -4 8 -4 11c0 4 2 6 6 6
c3 0 8 -2 13 -7c96 -87 180 -244 180 -434zM209 -67c0 -4 -2 -6 -6 -6c-3 0 -8 2 -13 7c-96 87 -179 234 -180 434c0 190 84 347 180 434c5 5 10 7 13 7c4 0 6 -2 6 -6c0 -3 -1 -7 -4 -11c-54 -83 -136 -225 -136 -424s82 -341 136 -424c3 -4 4 -8 4 -11zM807 662
c0 -3 -1 -7 -4 -11c-117 -165 -153 -300 -165 -556c-1 -24 -8 -47 -53 -47c-29 0 -39 12 -39 32c0 4 0 8 1 12c28 197 94 385 188 501h-147c-72 0 -90 -16 -114 -68c-3 -6 -4 -7 -10 -7c-3 1 -5 3 -5 7v2c9 47 15 95 19 130c1 10 4 11 12 11h305c8 0 12 -2 12 -6z" />
    <glyph glyph-name="uni2485" unicode="&#x2485;" 
d="M421 72c0 -6 -2 -8 -9 -8h-203c-7 0 -9 2 -9 8c0 4 2 7 7 8c12 3 31 7 45 13c12 5 20 11 20 25c0 74 1 178 1 253c0 87 -1 175 -1 227c0 10 -1 14 -9 14c-9 0 -26 -4 -58 -13h-2c-5 0 -8 5 -8 10c0 4 2 7 5 9c55 22 94 43 140 66c1 1 3 1 5 1c3 0 6 -2 6 -8v-3
c-2 -26 -3 -206 -3 -303c0 -87 1 -179 1 -253c0 -14 8 -20 20 -25s29 -10 45 -13c6 -1 7 -4 7 -8zM990 368c-1 -200 -84 -347 -180 -434c-5 -5 -10 -7 -13 -7c-4 0 -6 2 -6 6c0 3 1 7 4 11c54 83 136 225 136 424s-82 341 -136 424c-3 4 -4 8 -4 11c0 4 2 6 6 6
c3 0 8 -2 13 -7c96 -87 180 -244 180 -434zM209 -67c0 -4 -2 -6 -6 -6c-3 0 -8 2 -13 7c-96 87 -179 234 -180 434c0 190 84 347 180 434c5 5 10 7 13 7c4 0 6 -2 6 -6c0 -3 -1 -7 -4 -11c-54 -83 -136 -225 -136 -424s82 -341 136 -424c3 -4 4 -8 4 -11zM795 224
c0 -113 -62 -173 -170 -173c-109 0 -172 61 -172 169c0 76 38 132 111 167c-62 39 -92 81 -92 145v3c1 85 52 148 151 148c100 0 154 -61 154 -146v-3c0 -62 -31 -102 -98 -135c73 -39 116 -97 116 -175zM717 538c0 67 -35 114 -94 114c-55 0 -84 -43 -84 -101v-9
c3 -48 32 -85 105 -122c46 25 73 64 73 118zM716 210c0 64 -31 106 -118 153c-55 -29 -78 -70 -78 -141c0 -74 36 -136 102 -136c64 0 94 44 94 124z" />
    <glyph glyph-name="uni2486" unicode="&#x2486;" 
d="M421 72c0 -6 -2 -8 -9 -8h-203c-7 0 -9 2 -9 8c0 4 2 7 7 8c12 3 31 7 45 13c12 5 20 11 20 25c0 74 1 178 1 253c0 87 -1 175 -1 227c0 10 -1 14 -9 14c-9 0 -26 -4 -58 -13h-2c-5 0 -8 5 -8 10c0 4 2 7 5 9c55 22 94 43 140 66c1 1 3 1 5 1c3 0 6 -2 6 -8v-3
c-2 -26 -3 -206 -3 -303c0 -87 1 -179 1 -253c0 -14 8 -20 20 -25s29 -10 45 -13c6 -1 7 -4 7 -8zM990 368c-1 -200 -84 -347 -180 -434c-5 -5 -10 -7 -13 -7c-4 0 -6 2 -6 6c0 3 1 7 4 11c54 83 136 225 136 424s-82 341 -136 424c-3 4 -4 8 -4 11c0 4 2 6 6 6
c3 0 8 -2 13 -7c96 -87 180 -244 180 -434zM796 398c0 -217 -46 -345 -186 -345c-96 0 -141 58 -145 126v5c0 24 12 41 38 42h4c28 0 41 -21 41 -49v-3v-5c0 -49 14 -84 63 -84c81 0 111 79 111 268v19c-21 -49 -60 -74 -113 -74h-2c-96 0 -154 67 -154 191
c0 116 55 194 166 194s177 -82 177 -285zM209 -67c0 -4 -2 -6 -6 -6c-3 0 -8 2 -13 7c-96 87 -179 234 -180 434c0 190 84 347 180 434c5 5 10 7 13 7c4 0 6 -2 6 -6c0 -3 -1 -7 -4 -11c-54 -83 -136 -225 -136 -424s82 -341 136 -424c3 -4 4 -8 4 -11zM716 470
c0 119 -36 180 -97 180c-63 0 -93 -53 -93 -155v-5c1 -107 42 -153 95 -153c65 0 95 55 95 133z" />
    <glyph glyph-name="uni2487" unicode="&#x2487;" 
d="M488 217c-9 -50 -17 -102 -22 -141c-1 -8 -3 -12 -10 -12h-277c-7 0 -13 15 -13 15c0 67 42 168 152 268c64 55 83 123 83 182c0 78 -29 123 -81 123c-47 0 -72 -23 -72 -59c0 -17 6 -37 18 -59c4 -7 5 -15 5 -22c0 -24 -19 -43 -44 -43h-5c-36 0 -45 33 -45 57
c0 85 49 160 149 160c95 0 152 -64 152 -163c0 -82 -31 -144 -135 -220c-69 -50 -98 -102 -120 -169c0 0 89 1 135 6c61 7 84 18 116 80c1 3 4 5 8 5h2c2 -2 4 -4 4 -6v-2zM990 368c-1 -200 -84 -347 -180 -434c-5 -5 -10 -7 -13 -7c-4 0 -6 2 -6 6c0 3 1 7 4 11
c54 83 136 225 136 424s-82 341 -136 424c-3 4 -4 8 -4 11c0 4 2 6 6 6c3 0 8 -2 13 -7c96 -87 180 -244 180 -434zM845 369c0 -197 -50 -316 -168 -316c-116 0 -167 116 -167 316c0 191 49 314 167 314s168 -119 168 -314zM209 -67c0 -4 -2 -6 -6 -6c-3 0 -8 2 -13 7
c-96 87 -179 234 -180 434c0 190 84 347 180 434c5 5 10 7 13 7c4 0 6 -2 6 -6c0 -3 -1 -7 -4 -11c-54 -83 -136 -225 -136 -424s82 -341 136 -424c3 -4 4 -8 4 -11zM770 368c0 211 -36 284 -93 284c-56 0 -92 -73 -92 -284c0 -214 36 -282 92 -282c57 0 93 68 93 282z" />
    <glyph glyph-name="uni3251" unicode="&#x3251;" 
d="M988 368c0 -269 -219 -488 -488 -488s-488 219 -488 488s219 488 488 488s488 -219 488 -488zM942 368c0 244 -198 441 -442 441s-441 -197 -441 -441s197 -442 441 -442s442 198 442 442zM813 72c0 -6 -2 -8 -9 -8h-203c-7 0 -9 2 -9 8c0 4 2 7 7 8c12 3 31 7 45 13
c12 5 20 11 20 25c0 74 1 178 1 253c0 87 -1 175 -1 227c0 10 -1 14 -9 14c-9 0 -26 -4 -58 -13h-2c-5 0 -8 5 -8 10c0 4 2 7 5 9c55 22 94 43 140 66c1 1 3 1 5 1c3 0 6 -2 6 -8v-3c-2 -26 -3 -206 -3 -303c0 -87 1 -179 1 -253c0 -14 8 -20 20 -25s29 -10 45 -13
c6 -1 7 -4 7 -8zM522 214c-6 -26 -11 -52 -15 -76c-4 -23 -7 -45 -9 -63c-1 -8 -3 -11 -8 -11h-289c-13 0 -18 8 -15 22c25 104 70 178 162 258c65 56 82 125 82 184c0 79 -26 123 -81 123c-51 0 -80 -24 -80 -61c0 -17 7 -37 20 -58c4 -7 6 -14 6 -22
c0 -23 -21 -45 -46 -45c-5 0 -10 1 -15 3c-29 11 -34 38 -34 57c0 85 48 157 156 157c95 0 156 -64 156 -160c0 -82 -28 -143 -141 -219c-66 -44 -107 -109 -125 -172c46 0 82 1 137 5c74 6 93 18 126 80c2 4 3 5 6 5h3c2 -1 4 -2 4 -5v-2z" />
    <glyph glyph-name="uni2170" unicode="&#x2170;" 
d="M566 689c0 -35 -30 -69 -66 -69c-35 0 -66 34 -66 69s31 68 66 68c36 0 66 -33 66 -68zM622 8c0 -6 -3 -8 -9 -8h-218c-6 0 -9 2 -9 8s3 9 8 9c55 6 62 26 62 56v359c0 29 0 29 -55 29c-8 0 -12 5 -12 10c0 4 3 8 9 9c53 9 107 24 148 38h2c4 0 7 -4 7 -11v-434
c0 -30 4 -52 59 -56c5 0 8 -3 8 -9z" />
    <glyph glyph-name="uni2171" unicode="&#x2171;" 
d="M716 689c0 -35 -30 -69 -66 -69c-35 0 -66 34 -66 69s31 68 66 68c36 0 66 -33 66 -68zM455 689c0 -35 -30 -69 -66 -69c-35 0 -66 34 -66 69s31 68 66 68c36 0 66 -33 66 -68zM772 8c0 -6 -3 -8 -9 -8h-218c-6 0 -9 2 -9 8s3 9 8 9c55 6 62 26 62 56v359
c0 29 0 29 -55 29c-8 0 -12 5 -12 10c0 4 3 8 9 9c53 9 107 24 148 38h2c4 0 7 -4 7 -11v-434c0 -30 4 -52 59 -56c5 0 8 -3 8 -9zM511 8c0 -6 -3 -8 -9 -8h-218c-6 0 -9 2 -9 8s3 9 8 9c55 6 62 26 62 56v359c0 29 0 29 -55 29c-8 0 -12 5 -12 10c0 4 3 8 9 9
c53 9 107 24 148 38h2c4 0 7 -4 7 -11v-434c0 -30 4 -52 59 -56c5 0 8 -3 8 -9z" />
    <glyph glyph-name="uni2172" unicode="&#x2172;" 
d="M808 689c0 -35 -30 -69 -66 -69c-35 0 -66 34 -66 69s31 68 66 68c36 0 66 -33 66 -68zM566 689c0 -35 -30 -69 -66 -69c-35 0 -66 34 -66 69s31 68 66 68c36 0 66 -33 66 -68zM326 689c0 -35 -30 -69 -66 -69c-35 0 -66 34 -66 69s31 68 66 68c36 0 66 -33 66 -68z
M864 8c0 -6 -3 -8 -9 -8h-218c-6 0 -9 2 -9 8s3 9 8 9c55 6 62 26 62 56v359c0 29 0 29 -55 29c-8 0 -12 5 -12 10c0 4 3 8 9 9c53 9 107 24 148 38h2c4 0 7 -4 7 -11v-434c0 -30 4 -52 59 -56c5 0 8 -3 8 -9zM622 8c0 -6 -3 -8 -9 -8h-218c-6 0 -9 2 -9 8s3 9 8 9
c55 6 62 26 62 56v359c0 29 0 29 -55 29c-8 0 -12 5 -12 10c0 4 3 8 9 9c53 9 107 24 148 38h2c4 0 7 -4 7 -11v-434c0 -30 4 -52 59 -56c5 0 8 -3 8 -9zM382 8c0 -6 -3 -8 -9 -8h-218c-6 0 -9 2 -9 8s3 9 8 9c55 6 62 26 62 56v359c0 29 0 29 -55 29c-8 0 -12 5 -12 10
c0 4 3 8 9 9c53 9 107 24 148 38h2c4 0 7 -4 7 -11v-434c0 -30 4 -52 59 -56c5 0 8 -3 8 -9z" />
    <glyph glyph-name="uni2173" unicode="&#x2173;" 
d="M338 689c0 -35 -30 -69 -66 -69c-35 0 -66 34 -66 69s31 68 66 68c36 0 66 -33 66 -68zM394 8c0 -6 -3 -8 -9 -8h-218c-6 0 -9 2 -9 8s3 9 8 9c55 6 62 26 62 56v359c0 29 0 29 -55 29c-8 0 -12 5 -12 10c0 4 3 8 9 9c53 9 107 24 148 38h2c4 0 7 -4 7 -11v-434
c0 -30 4 -52 59 -56c5 0 8 -3 8 -9zM918 500c0 -3 0 -5 -8 -7c-32 -6 -61 -24 -76 -65l-164 -427c-2 -4 -10 -12 -17 -12c-11 0 -17 8 -20 12l-218 458c-10 23 -23 28 -57 32c-5 0 -7 3 -7 8s1 8 7 8h217c7 0 10 -2 10 -7c0 -4 -2 -6 -6 -8c-1 0 -2 -1 -4 -1
c-33 -5 -47 -15 -47 -27c0 -4 1 -7 3 -11l145 -324l113 297c3 7 4 13 4 18c0 26 -25 42 -64 49c-5 1 -8 4 -8 7c0 5 2 7 10 7h177c8 0 10 -2 10 -7z" />
    <glyph glyph-name="uni2174" unicode="&#x2174;" 
d="M792 500c0 -3 0 -5 -8 -7c-32 -6 -61 -24 -76 -65l-164 -427c-2 -4 -10 -12 -17 -12c-11 0 -17 8 -20 12l-218 458c-10 23 -23 28 -57 32c-5 0 -7 3 -7 8s1 8 7 8h217c7 0 10 -2 10 -7c0 -4 -2 -6 -6 -8c-1 0 -2 -1 -4 -1c-33 -5 -47 -15 -47 -27c0 -4 1 -7 3 -11
l145 -324l113 297c3 7 4 13 4 18c0 26 -25 42 -64 49c-5 1 -8 4 -8 7c0 5 2 7 10 7h177c8 0 10 -2 10 -7z" />
    <glyph glyph-name="uni2175" unicode="&#x2175;" 
d="M828 689c0 -35 -30 -69 -66 -69c-35 0 -66 34 -66 69s31 68 66 68c36 0 66 -33 66 -68zM884 8c0 -6 -3 -8 -9 -8h-218c-6 0 -9 2 -9 8s3 9 8 9c55 6 62 26 62 56v359c0 29 0 29 -55 29c-8 0 -12 5 -12 10c0 4 3 8 9 9c53 9 107 24 148 38h2c4 0 7 -4 7 -11v-434
c0 -30 4 -52 59 -56c5 0 8 -3 8 -9zM658 500c0 -3 0 -5 -8 -7c-32 -6 -61 -24 -76 -65l-164 -427c-2 -4 -10 -12 -17 -12c-11 0 -17 8 -20 12l-218 458c-10 23 -23 28 -57 32c-5 0 -7 3 -7 8s1 8 7 8h217c7 0 10 -2 10 -7c0 -4 -2 -6 -6 -8c-1 0 -2 -1 -4 -1
c-33 -5 -47 -15 -47 -27c0 -4 1 -7 3 -11l145 -324l113 297c3 7 4 13 4 18c0 26 -25 42 -64 49c-5 1 -8 4 -8 7c0 5 2 7 10 7h177c8 0 10 -2 10 -7z" />
    <glyph glyph-name="uni2176" unicode="&#x2176;" 
d="M893 689c0 -35 -28 -69 -62 -69s-63 34 -63 69s29 68 63 68s62 -33 62 -68zM692 689c0 -35 -28 -69 -62 -69s-63 34 -63 69s29 68 63 68s62 -33 62 -68zM947 8c0 -6 -3 -8 -9 -8h-408c-6 0 -9 2 -9 8s3 9 8 9c52 6 59 26 59 56v359c0 29 0 29 -52 29c-8 0 -12 5 -12 10
c0 4 3 8 9 9c50 9 101 24 140 38h2c4 0 7 -4 7 -11v-434c0 -29 22 -50 51 -51h2c30 0 54 23 54 51v359c0 29 0 29 -52 29c-8 0 -12 5 -12 10c0 4 3 8 9 9c50 9 101 24 140 38h2c4 0 7 -4 7 -11v-434c0 -30 4 -52 56 -56c5 0 8 -3 8 -9zM542 499c0 -4 -2 -7 -7 -9
c-29 -10 -47 -32 -59 -63c-40 -104 -121 -312 -166 -430c-2 -6 -5 -8 -8 -8c-4 0 -6 3 -8 8c-65 159 -145 349 -194 462c-7 18 -24 26 -45 32c-5 1 -6 3 -6 8c0 6 1 8 7 8h187c6 0 9 -2 9 -8c0 -5 -1 -8 -9 -10c-26 -7 -42 -17 -42 -30c0 -2 0 -4 1 -6
c28 -72 97 -238 128 -309c25 63 75 194 107 283c2 5 2 9 2 13c0 24 -25 42 -59 51c-4 1 -7 3 -7 8c0 7 3 8 10 8h150c6 0 9 -1 9 -8z" />
    <glyph glyph-name="uni2177" unicode="&#x2177;" 
d="M922 689c0 -35 -28 -69 -61 -69s-62 34 -62 69s29 68 62 68s61 -33 61 -68zM745 689c0 -35 -28 -69 -61 -69s-62 34 -62 69s29 68 62 68s61 -33 61 -68zM571 689c0 -35 -28 -69 -61 -69s-62 34 -62 69s29 68 62 68s61 -33 61 -68zM975 8c0 -6 -3 -8 -9 -8h-554
c-6 0 -10 2 -10 8s4 9 9 9c51 6 63 26 63 56v369c0 26 -18 29 -34 29c-20 0 -21 -31 -26 -44c-37 -104 -108 -303 -156 -430c-2 -6 -5 -8 -8 -8c-4 0 -6 3 -8 8c-62 159 -135 349 -184 462c-7 18 -24 26 -45 32c-5 1 -6 3 -6 8c0 6 1 8 7 8h187c6 0 9 -2 9 -8
c0 -5 -1 -8 -9 -10c-26 -7 -42 -17 -42 -30c0 -2 0 -4 1 -6c25 -78 87 -238 118 -309c25 66 68 188 97 283c1 4 2 8 2 12c0 25 -24 42 -59 52c-4 1 -7 3 -7 8c0 7 5 8 10 8h66c52 0 107 1 165 11h1c5 0 8 -4 8 -11v-434c0 -26 12 -49 38 -49c27 0 49 22 49 49v359
c0 29 -5 29 -56 29c-8 0 -12 5 -12 10c0 4 3 8 9 9c49 9 99 24 137 38h2c4 0 7 -4 7 -11v-434c0 -27 14 -49 40 -49c27 0 50 22 50 49v359c0 29 -5 29 -56 29c-8 0 -12 5 -12 10c0 4 3 8 9 9c49 9 99 24 137 38h2c4 0 7 -4 7 -11v-434c0 -30 4 -52 55 -56c5 0 8 -3 8 -9z
" />
    <glyph glyph-name="uni2178" unicode="&#x2178;" 
d="M345 689c0 -35 -30 -69 -66 -69c-35 0 -66 34 -66 69s31 68 66 68c36 0 66 -33 66 -68zM401 8c0 -6 -3 -8 -9 -8h-218c-6 0 -9 2 -9 8s3 9 8 9c55 6 62 26 62 56v359c0 29 0 29 -55 29c-8 0 -12 5 -12 10c0 4 3 8 9 9c53 9 107 24 148 38h2c4 0 7 -4 7 -11v-434
c0 -30 4 -52 59 -56c5 0 8 -3 8 -9zM898 9c0 -7 -3 -9 -9 -9h-183c-6 0 -8 3 -8 8c0 4 2 6 5 8c1 0 2 1 3 1c20 4 29 14 29 26c0 4 -1 9 -4 14c-24 44 -59 102 -91 154c-28 -44 -57 -91 -85 -137c-4 -6 -5 -12 -5 -18c0 -17 14 -32 38 -40c6 -1 8 -4 8 -8c0 -7 -3 -8 -9 -8
h-164c-6 0 -8 2 -8 7c0 6 2 8 7 9c36 10 60 21 79 48c43 63 82 125 117 180c-42 68 -76 126 -132 211c-11 17 -28 27 -55 34c-4 2 -6 4 -6 9c0 7 3 9 8 9h180c6 0 8 -3 8 -8c0 -4 -2 -6 -5 -8c-1 0 -2 -1 -3 -1c-20 -4 -29 -14 -29 -26c0 -4 1 -9 4 -14
c23 -41 48 -85 76 -132c27 43 49 76 71 115c4 6 6 13 6 19c0 18 -15 34 -35 39c-6 1 -8 4 -8 8c0 7 3 8 9 8h151c5 0 8 -2 8 -7c0 -6 -3 -8 -7 -9c-36 -10 -52 -22 -70 -48c-38 -58 -69 -104 -103 -158c45 -75 90 -148 146 -233c12 -16 34 -27 59 -34c5 -2 7 -4 7 -9z" />
    <glyph glyph-name="uni2179" unicode="&#x2179;" 
d="M781 9c0 -6 -2 -9 -6 -9h-217c-7 0 -8 2 -8 7s2 7 7 8c32 5 46 14 46 24c0 4 -2 9 -5 13l-111 160l-107 -146c-3 -4 -4 -8 -4 -12c0 -15 16 -31 49 -39c6 -1 8 -3 8 -8s0 -7 -7 -7h-174c-4 0 -8 3 -8 9c0 5 2 7 7 8c38 10 61 25 72 40l142 188l-154 216
c-15 21 -26 26 -50 29c-5 0 -8 3 -8 8c0 6 2 9 9 9h198c4 0 7 -2 7 -7c0 -4 0 -6 -3 -8c-1 0 -3 -1 -5 -1c-27 -5 -37 -10 -37 -18c0 -4 2 -7 5 -12l96 -141l96 130c2 3 4 7 4 10c0 15 -22 28 -50 31c-6 0 -8 4 -8 9s3 7 7 7h165c7 0 9 -3 9 -9c0 -5 -1 -6 -6 -7
c-31 -5 -52 -16 -66 -35l-126 -167l165 -240c13 -18 32 -29 61 -32c4 0 7 -4 7 -8z" />
    <glyph glyph-name="uni3252" unicode="&#x3252;" 
d="M988 368c0 -269 -219 -488 -488 -488s-488 219 -488 488s219 488 488 488s488 -219 488 -488zM942 368c0 244 -198 441 -442 441s-441 -197 -441 -441c0 -111 41 -213 109 -291c0 2 0 5 1 9c25 105 68 178 158 258c63 56 79 125 79 184c0 79 -25 123 -78 123
c-49 0 -78 -24 -78 -61c0 -17 6 -37 19 -58c4 -7 6 -15 6 -22c0 -23 -20 -45 -44 -45c-5 0 -10 1 -15 3c-28 11 -33 38 -33 57c0 85 47 157 151 157c92 0 152 -64 152 -160c0 -82 -28 -143 -137 -219c-64 -44 -104 -109 -121 -172c44 0 79 1 133 5c71 6 90 18 122 80
c2 4 3 5 6 5h2c2 -1 4 -2 4 -5v-2c-11 -53 -19 -103 -23 -139c-1 -8 -3 -11 -8 -11h-284c80 -85 193 -138 320 -138c244 0 442 198 442 442zM845 214c-6 -26 -11 -52 -15 -76c-4 -23 -7 -45 -9 -63c-1 -8 -3 -11 -7 -11h-284c-9 0 -13 2 -13 10c0 3 1 7 2 12
c24 105 67 178 157 258c63 56 79 125 79 184c0 79 -25 123 -78 123c-49 0 -77 -24 -77 -61c0 -17 6 -37 19 -58c4 -7 6 -14 6 -21c0 -24 -20 -46 -45 -46c-5 0 -10 1 -15 3c-28 11 -33 38 -33 57c0 85 47 157 152 157c92 0 151 -64 151 -160c0 -82 -28 -143 -137 -219
c-64 -44 -104 -109 -121 -172c44 0 79 1 133 5c72 6 90 18 122 80c2 4 3 5 6 5h3c3 -1 4 -3 4 -7z" />
    <glyph glyph-name="uni3253" unicode="&#x3253;" 
d="M988 368c0 -269 -219 -488 -488 -488s-488 219 -488 488s219 488 488 488s488 -219 488 -488zM942 368c0 244 -198 441 -442 441s-441 -197 -441 -441c0 -112 41 -214 109 -292c0 3 1 6 2 10c24 105 67 178 157 258c63 56 79 125 79 184c0 79 -25 123 -78 123
c-49 0 -78 -24 -78 -61c0 -17 6 -37 19 -58c5 -7 7 -15 7 -22c0 -24 -21 -45 -45 -45c-5 0 -10 1 -15 3c-28 11 -33 38 -33 57c0 85 47 157 151 157c93 0 152 -64 152 -160c0 -82 -28 -143 -137 -219c-64 -44 -104 -109 -121 -172c44 0 79 1 133 5c71 6 90 18 122 80
c2 4 3 5 6 5h3c3 -1 4 -3 3 -7c-11 -53 -19 -103 -23 -139c-1 -8 -3 -11 -8 -11h-284c80 -85 194 -138 320 -138c244 0 442 198 442 442zM852 233c0 -118 -59 -179 -169 -179c-117 0 -157 64 -161 125v6c0 27 14 52 38 53h4c27 0 43 -22 43 -56c0 -60 5 -89 69 -95h9
c52 0 91 47 91 125c0 7 0 14 -1 22c-8 97 -64 144 -155 146c-10 0 -15 3 -15 13c0 11 7 12 16 12c86 2 146 37 146 125v13c-4 66 -36 109 -91 109c-50 0 -74 -23 -74 -50c0 -10 4 -21 11 -31c4 -6 6 -13 6 -20c0 -22 -19 -43 -44 -43c-3 0 -7 1 -11 2c-23 6 -31 25 -31 48
c0 68 56 126 149 126c101 0 156 -62 156 -142c0 -90 -52 -142 -118 -145c-13 0 -13 -5 0 -5c69 0 132 -70 132 -159z" />
    <glyph glyph-name="uni3254" unicode="&#x3254;" 
d="M988 368c0 -269 -219 -488 -488 -488s-488 219 -488 488s219 488 488 488s488 -219 488 -488zM942 368c0 244 -198 441 -442 441s-441 -197 -441 -441c0 -113 42 -216 112 -295c0 4 1 7 2 12c24 105 66 178 153 258c61 56 77 125 77 184c0 79 -25 123 -77 123
c-47 0 -75 -24 -75 -61c0 -17 6 -37 19 -58c4 -7 6 -14 6 -21c0 -24 -20 -46 -43 -46c-5 0 -10 1 -15 3c-27 11 -32 38 -32 57c0 85 45 157 147 157c89 0 147 -64 147 -160c0 -82 -27 -143 -133 -219c-40 -29 -71 -66 -92 -107c-11 -21 -19 -43 -25 -65c43 0 77 1 128 5
c70 6 88 18 119 80c2 4 3 5 6 5h2c2 -1 4 -2 4 -5v-2c-11 -53 -18 -103 -22 -139c-1 -8 -3 -11 -8 -11h-279c81 -84 194 -137 320 -137c244 0 442 198 442 442zM835 246c0 -17 -4 -17 -13 -17h-60v-109c0 -14 7 -21 18 -25c10 -4 25 -10 36 -13c6 -1 8 -4 8 -9s-2 -7 -10 -7
h-179c-7 0 -9 2 -9 7c0 4 1 6 4 8c1 0 2 1 3 1c13 3 27 7 41 13c11 4 19 11 19 25v109h-177c-11 0 -12 4 -12 17c0 15 1 17 5 24c56 101 148 272 222 410c3 5 6 7 13 7h5c11 -2 13 -6 13 -16v-408h60c9 0 13 -1 13 -17zM697 544l-3 1c-33 -63 -101 -192 -150 -282h149
s1 217 4 281z" />
    <glyph glyph-name="uni3255" unicode="&#x3255;" 
d="M988 368c0 -269 -219 -488 -488 -488s-488 219 -488 488s219 488 488 488s488 -219 488 -488zM942 368c0 119 -47 227 -124 306c-4 -21 -8 -46 -11 -67c-1 -4 -2 -7 -9 -7h-209c-1 -13 -11 -153 -14 -201c0 -4 0 -6 1 -6s3 2 5 5c16 21 50 45 83 47h14
c105 0 169 -75 169 -190c0 -121 -49 -203 -171 -203c-103 0 -152 73 -153 131v4c0 27 9 50 38 52c26 1 44 -16 44 -51v-6c0 -5 -1 -9 -1 -14c0 -41 18 -80 68 -80c63 0 99 48 99 142v15c-4 95 -36 160 -109 160c-41 0 -73 -26 -96 -61c-4 -7 -8 -10 -13 -10c-3 0 -5 1 -8 2
c-3 3 -5 7 -5 15c0 4 1 8 1 13c7 96 15 209 20 305c0 4 9 7 9 7h198c16 0 29 3 37 10c-79 76 -186 123 -305 123c-244 0 -441 -197 -441 -441c0 -112 41 -214 109 -292c0 3 1 6 2 10c24 105 67 179 154 259c62 56 78 124 78 183c0 79 -25 122 -76 122c-47 0 -75 -24 -75 -60
c0 -17 6 -36 19 -57c4 -7 6 -15 6 -23c0 -24 -20 -46 -44 -46c-5 0 -11 1 -16 3c-28 11 -32 39 -32 58c0 85 45 158 149 158c91 0 149 -65 149 -161c0 -82 -27 -144 -134 -220c-63 -44 -101 -108 -118 -170c43 0 77 1 128 5c70 6 88 18 119 79c2 5 4 6 7 6h3c2 -1 4 -3 4 -6
v-2c-11 -53 -19 -103 -22 -139c-1 -8 -3 -12 -9 -12h-279c80 -85 194 -137 319 -137c244 0 442 198 442 442z" />
    <glyph glyph-name="uni3256" unicode="&#x3256;" 
d="M988 368c0 -269 -219 -488 -488 -488s-488 219 -488 488s219 488 488 488s488 -219 488 -488zM942 368c0 244 -198 441 -442 441s-441 -197 -441 -441c0 -107 38 -205 101 -282c24 105 67 178 157 258c63 56 79 125 79 184c0 79 -25 123 -78 123c-49 0 -78 -24 -78 -61
c0 -17 7 -37 20 -58c4 -7 6 -14 6 -21c0 -24 -20 -46 -45 -46c-5 0 -10 1 -15 3c-28 11 -33 38 -33 57c0 85 47 157 152 157c92 0 151 -64 151 -160c0 -82 -28 -143 -137 -219c-64 -44 -104 -109 -121 -172c44 0 79 1 133 5c72 6 90 18 122 80c2 4 3 5 6 5h3c3 -1 4 -3 4 -7
c-6 -26 -11 -52 -15 -76c-4 -23 -7 -45 -9 -63c-1 -8 -3 -11 -8 -11h-274c80 -85 194 -138 320 -138c244 0 442 198 442 442zM846 247c0 -113 -48 -194 -159 -194c-110 0 -170 82 -170 285c0 217 41 348 179 348c84 0 134 -58 134 -127c0 -24 -12 -45 -40 -46h-4
c-26 0 -35 18 -35 43v8c0 5 1 11 1 16c0 45 -17 74 -59 74c-85 0 -109 -89 -109 -287c24 48 62 74 111 74h2c96 0 149 -71 149 -194zM776 241v5c-2 109 -41 153 -93 153c-59 0 -93 -51 -93 -130v-3c2 -116 38 -177 98 -177c58 0 88 49 88 152z" />
    <glyph glyph-name="uni3257" unicode="&#x3257;" 
d="M988 368c0 -269 -219 -488 -488 -488s-488 219 -488 488s219 488 488 488s488 -219 488 -488zM942 368c0 107 -38 206 -102 282c-105 -158 -138 -293 -150 -541c-1 -24 -7 -47 -51 -47c-28 0 -38 12 -38 32c0 3 0 8 1 12c27 197 91 385 182 501h-142
c-70 0 -87 -16 -111 -68c-2 -6 -4 -7 -9 -7c-3 1 -5 3 -5 7v2c8 47 14 95 18 130c1 10 4 11 12 11h263c-79 78 -189 127 -310 127c-244 0 -441 -197 -441 -441c0 -109 40 -209 105 -287c0 2 1 3 1 5c24 105 67 178 157 258c63 56 79 125 79 184c0 79 -25 123 -78 123
c-49 0 -78 -24 -78 -61c0 -17 7 -37 20 -58c4 -7 6 -14 6 -21c0 -24 -20 -46 -45 -46c-5 0 -10 1 -15 3c-28 11 -33 38 -33 57c0 85 47 157 152 157c92 0 151 -64 151 -160c0 -82 -28 -143 -137 -219c-64 -44 -104 -109 -121 -172c44 0 79 1 133 5c71 6 90 18 122 80
c2 4 3 5 6 5h3c3 -1 4 -3 4 -7c-6 -26 -11 -52 -15 -76c-4 -23 -7 -45 -9 -63c-1 -8 -3 -11 -8 -11h-280c80 -84 195 -138 321 -138c244 0 442 198 442 442z" />
    <glyph glyph-name="uni3258" unicode="&#x3258;" 
d="M988 368c0 -269 -219 -488 -488 -488s-488 219 -488 488s219 488 488 488s488 -219 488 -488zM942 368c0 244 -198 441 -442 441s-441 -197 -441 -441c0 -107 38 -205 101 -282c24 105 67 178 157 258c63 56 79 125 79 184c0 79 -25 123 -78 123c-49 0 -78 -24 -78 -61
c0 -17 6 -37 19 -58c5 -7 7 -15 7 -22c0 -24 -21 -45 -45 -45c-5 0 -10 1 -15 3c-28 11 -33 38 -33 57c0 85 47 157 151 157c93 0 152 -64 152 -160c0 -82 -28 -143 -137 -219c-64 -44 -104 -109 -121 -172c44 0 79 1 133 5c71 6 90 18 122 80c2 4 3 5 6 5h3c3 -1 4 -3 3 -7
c-11 -53 -19 -103 -23 -139c-1 -8 -3 -11 -8 -11h-274c80 -85 194 -138 320 -138c244 0 442 198 442 442zM843 226c0 -113 -60 -173 -164 -173c-106 0 -167 61 -167 169c0 76 37 132 107 167c-60 39 -89 81 -89 145v3c1 85 51 148 147 148c97 0 148 -61 149 -146
c0 -64 -29 -104 -95 -138c71 -39 112 -97 112 -175zM768 540c0 67 -34 114 -91 114c-54 0 -82 -43 -82 -101v-9c3 -48 31 -85 102 -122c45 25 71 64 71 118zM767 212c0 64 -30 106 -115 153c-53 -29 -75 -70 -75 -141c0 -74 35 -136 99 -136c62 0 91 44 91 124z" />
    <glyph glyph-name="uni3259" unicode="&#x3259;" 
d="M988 368c0 -269 -219 -488 -488 -488s-488 219 -488 488s219 488 488 488s488 -219 488 -488zM942 368c0 244 -198 441 -442 441s-441 -197 -441 -441c0 -107 38 -205 101 -282c24 105 67 178 157 258c63 56 79 125 79 184c0 79 -25 123 -78 123c-49 0 -78 -24 -78 -61
c0 -17 6 -37 19 -58c5 -7 7 -15 7 -22c0 -24 -21 -45 -45 -45c-5 0 -10 1 -15 3c-28 11 -33 38 -33 57c0 85 47 157 151 157c93 0 152 -64 152 -160c0 -82 -28 -143 -137 -219c-64 -44 -104 -109 -121 -172c44 0 79 1 133 5c71 6 90 18 122 80c2 4 3 5 6 5h3c3 -1 4 -3 4 -7
c-6 -26 -11 -52 -15 -76c-4 -23 -7 -45 -9 -63c-1 -8 -3 -11 -8 -11h-274c80 -85 194 -138 320 -138c244 0 442 198 442 442zM844 398c0 -217 -44 -345 -180 -345c-93 0 -136 58 -141 126v3c0 25 11 43 37 44h4c27 0 40 -21 40 -49v-3v-6c0 -48 13 -83 61 -83
c78 0 108 79 108 268v19c-21 -49 -59 -74 -110 -74h-2c-93 0 -149 67 -149 191c0 116 53 194 161 194c107 0 171 -82 171 -285zM767 470c0 119 -35 180 -94 180c-61 0 -90 -53 -90 -155v-5c0 -107 40 -153 92 -153c63 0 92 55 92 133z" />
    <glyph glyph-name="uni325A" unicode="&#x325a;" 
d="M988 368c0 -269 -219 -488 -488 -488s-488 219 -488 488s219 488 488 488s488 -219 488 -488zM942 368c0 244 -198 441 -442 441s-441 -197 -441 -441s197 -442 441 -442s442 198 442 442zM486 233c0 -118 -59 -179 -169 -179c-117 0 -157 64 -161 125v6
c0 27 14 52 38 53h4c27 0 43 -22 43 -56c0 -60 5 -89 69 -95h9c52 0 91 47 91 125c0 7 0 14 -1 22c-9 97 -64 144 -155 146c-10 0 -15 3 -15 13c0 11 7 12 16 12c86 2 146 37 146 125v13c-4 66 -36 109 -91 109c-50 0 -74 -23 -74 -50c0 -10 4 -21 11 -31c4 -6 6 -13 6 -20
c0 -22 -19 -43 -44 -43c-3 0 -7 1 -11 2c-23 6 -31 25 -31 48c0 68 56 126 149 126c101 0 156 -62 156 -142c0 -90 -52 -142 -118 -145c-13 0 -13 -5 0 -5c69 0 132 -70 132 -159zM844 369c0 -197 -48 -316 -163 -316c-112 0 -162 116 -162 316c0 191 48 314 162 314
c115 0 163 -119 163 -314zM772 368c0 211 -35 284 -91 284c-54 0 -89 -73 -89 -284c0 -214 35 -282 89 -282c56 0 91 68 91 282z" />
    <glyph glyph-name="uni325B" unicode="&#x325b;" 
d="M988 368c0 -269 -219 -488 -488 -488s-488 219 -488 488s219 488 488 488s488 -219 488 -488zM942 368c0 244 -198 441 -442 441s-441 -197 -441 -441s197 -442 441 -442s442 198 442 442zM808 72c0 -6 -2 -8 -9 -8h-203c-7 0 -9 2 -9 8c0 4 2 7 7 8c12 3 31 7 45 13
c12 5 20 11 20 25c0 74 1 178 1 253c0 87 -1 175 -1 227c0 10 -1 14 -9 14c-9 0 -26 -4 -58 -13h-2c-5 0 -8 5 -8 10c0 4 2 7 5 9c55 22 94 43 140 66c1 1 3 1 5 1c3 0 6 -2 6 -8v-3c-2 -26 -3 -206 -3 -303c0 -87 1 -179 1 -253c0 -14 8 -20 20 -25s29 -10 45 -13
c6 -1 7 -4 7 -8zM520 233c0 -118 -61 -179 -175 -179c-120 0 -162 64 -166 125v5c0 28 15 53 40 54h4c27 0 44 -22 44 -56c0 -60 5 -89 71 -95h9c54 0 94 47 94 125c0 7 0 15 -1 22c-9 97 -66 144 -160 146c-10 0 -15 3 -15 13c0 11 7 12 16 12c89 2 151 37 151 126v12
c-4 66 -37 109 -94 109c-51 0 -76 -23 -76 -50c0 -10 4 -21 11 -31c4 -6 6 -13 6 -20c0 -22 -19 -43 -44 -43c-4 0 -8 1 -12 2c-24 6 -32 25 -32 48c0 68 57 126 153 126c104 0 161 -62 161 -142c0 -90 -53 -142 -122 -145c-13 0 -13 -5 0 -5c72 0 137 -70 137 -159z" />
    <glyph glyph-name="uni249C" unicode="&#x249c;" 
d="M747 182c0 -4 -3 -8 -7 -11c-17 -16 -45 -27 -72 -27c-50 0 -72 23 -75 68c-34 -44 -101 -68 -162 -68c-88 0 -133 45 -133 115c0 89 56 128 164 145c34 5 91 17 124 29c0 96 -44 128 -107 128c-69 0 -93 -22 -93 -53c0 -13 14 -21 14 -39c0 -27 -15 -41 -44 -41
c-26 0 -41 22 -41 49c0 64 65 117 181 117c121 0 176 -59 176 -163v-190c0 -43 7 -63 34 -63c11 0 19 3 28 9c2 1 3 2 4 2c1 1 2 1 2 1c2 0 4 -2 6 -4c1 -1 1 -2 1 -4zM990 368c-1 -200 -84 -347 -180 -434c-5 -5 -10 -7 -13 -7c-4 0 -6 2 -6 6c0 3 1 7 4 11
c54 83 136 225 136 424s-82 341 -136 424c-3 4 -4 8 -4 11c0 4 2 6 6 6c3 0 8 -2 13 -7c96 -87 180 -244 180 -434zM209 -67c0 -4 -2 -6 -6 -6c-3 0 -8 2 -13 7c-96 87 -179 234 -180 434c0 190 84 347 180 434c5 5 10 7 13 7c4 0 6 -2 6 -6c0 -3 -1 -7 -4 -11
c-54 -83 -136 -225 -136 -424s82 -341 136 -424c3 -4 4 -8 4 -11zM589 253v147c-29 -10 -75 -21 -117 -30c-66 -12 -95 -45 -95 -100c0 -46 32 -74 93 -74c49 0 105 27 119 57z" />
    <glyph glyph-name="uni249D" unicode="&#x249d;" 
d="M719 269c0 -136 -80 -224 -199 -224c-48 0 -100 21 -130 53c-25 -18 -41 -29 -70 -51c-1 -1 -2 -1 -3 -1c-3 0 -6 3 -6 9v570c0 22 -2 24 -47 24c-6 0 -9 4 -9 8s2 8 7 8c35 6 89 21 123 33h1c5 0 7 -4 7 -10v-244c26 32 78 51 134 51c122 0 192 -89 192 -226zM990 368
c-1 -200 -84 -347 -180 -434c-5 -5 -10 -7 -13 -7c-4 0 -6 2 -6 6c0 3 1 7 4 11c54 83 136 225 136 424s-82 341 -136 424c-3 4 -4 8 -4 11c0 4 2 6 6 6c3 0 8 -2 13 -7c96 -87 180 -244 180 -434zM209 -67c0 -4 -2 -6 -6 -6c-3 0 -8 2 -13 7c-96 87 -179 234 -180 434
c0 190 84 347 180 434c5 5 10 7 13 7c4 0 6 -2 6 -6c0 -3 -1 -7 -4 -11c-54 -83 -136 -225 -136 -424s82 -341 136 -424c3 -4 4 -8 4 -11zM633 240c0 144 -52 216 -137 216c-45 0 -88 -23 -107 -68v-179c0 -77 58 -126 124 -126c75 0 120 49 120 157z" />
    <glyph glyph-name="uni249E" unicode="&#x249e;" 
d="M698 476c0 -31 -14 -46 -39 -46c-30 0 -46 21 -46 41c0 60 -44 91 -98 91c-67 0 -119 -52 -119 -166c0 -145 76 -208 155 -208c53 0 93 21 125 72c1 2 4 4 8 4c2 0 4 -1 6 -2c4 -4 5 -10 3 -15c-25 -61 -85 -103 -163 -103c-138 0 -224 91 -224 226c0 138 97 224 218 224
c110 0 174 -65 174 -118zM990 368c-1 -200 -84 -347 -180 -434c-5 -5 -10 -7 -13 -7c-4 0 -6 2 -6 6c0 3 1 7 4 11c54 83 136 225 136 424s-82 341 -136 424c-3 4 -4 8 -4 11c0 4 2 6 6 6c3 0 8 -2 13 -7c96 -87 180 -244 180 -434zM209 -67c0 -4 -2 -6 -6 -6
c-3 0 -8 2 -13 7c-96 87 -179 234 -180 434c0 190 84 347 180 434c5 5 10 7 13 7c4 0 6 -2 6 -6c0 -3 -1 -7 -4 -11c-54 -83 -136 -225 -136 -424s82 -341 136 -424c3 -4 4 -8 4 -11z" />
    <glyph glyph-name="uni249F" unicode="&#x249f;" 
d="M744 94c0 -4 -2 -8 -7 -10c-38 -14 -79 -29 -117 -39h-2c-4 0 -5 4 -5 9l-1 44c-26 -34 -76 -53 -135 -53c-118 0 -201 86 -201 224c0 136 87 226 203 226c54 0 101 -20 126 -46v176c0 22 -3 24 -47 24c-6 0 -9 4 -9 8s2 8 7 8c41 8 87 21 123 33h1c4 0 6 -4 6 -10v-567
c0 -16 2 -23 18 -23c7 0 17 2 31 4h2c5 0 7 -4 7 -8zM990 368c-1 -200 -84 -347 -180 -434c-5 -5 -10 -7 -13 -7c-4 0 -6 2 -6 6c0 3 1 7 4 11c54 83 136 225 136 424s-82 341 -136 424c-3 4 -4 8 -4 11c0 4 2 6 6 6c3 0 8 -2 13 -7c96 -87 180 -244 180 -434zM209 -67
c0 -4 -2 -6 -6 -6c-3 0 -8 2 -13 7c-96 87 -179 234 -180 434c0 190 84 347 180 434c5 5 10 7 13 7c4 0 6 -2 6 -6c0 -3 -1 -7 -4 -11c-54 -83 -136 -225 -136 -424s82 -341 136 -424c3 -4 4 -8 4 -11zM608 148v192c0 72 -53 117 -122 117c-73 0 -123 -52 -123 -162
c0 -150 63 -211 144 -211c43 0 83 26 101 64z" />
    <glyph glyph-name="uni24A0" unicode="&#x24a0;" 
d="M701 396c0 -17 -2 -22 -11 -23l-306 -25c12 -111 79 -162 154 -162c56 0 101 22 134 66c2 3 5 4 8 4c2 0 4 0 6 -2c3 -2 4 -5 4 -9v-3c-28 -63 -87 -97 -171 -97c-136 0 -220 91 -220 226c0 138 89 224 211 224c106 0 191 -79 191 -199zM990 368
c-1 -200 -84 -347 -180 -434c-5 -5 -10 -7 -13 -7c-4 0 -6 2 -6 6c0 3 1 7 4 11c54 83 136 225 136 424s-82 341 -136 424c-3 4 -4 8 -4 11c0 4 2 6 6 6c3 0 8 -2 13 -7c96 -87 180 -244 180 -434zM209 -67c0 -4 -2 -6 -6 -6c-3 0 -8 2 -13 7c-96 87 -179 234 -180 434
c0 190 84 347 180 434c5 5 10 7 13 7c4 0 6 -2 6 -6c0 -3 -1 -7 -4 -11c-54 -83 -136 -225 -136 -424s82 -341 136 -424c3 -4 4 -8 4 -11zM622 414c0 70 -39 150 -120 150c-72 0 -121 -55 -121 -167v-18l236 26c5 0 5 3 5 9z" />
    <glyph glyph-name="uni24A1" unicode="&#x24a1;" 
d="M659 627c0 -29 -12 -40 -32 -40c-29 0 -38 17 -38 39c0 30 -7 43 -33 43c-37 0 -39 -71 -39 -128v-55h80c5 0 7 -7 7 -16c0 -7 -2 -14 -7 -14h-80v-339c0 -25 6 -40 60 -47c3 -1 7 -3 7 -8s-2 -7 -8 -7h-196c-5 0 -8 2 -8 7s2 7 7 8c47 4 55 22 55 47v339h-63
c-5 0 -8 8 -8 14c0 9 0 16 8 16h63v60c0 99 46 153 125 153c66 0 100 -33 100 -72zM990 368c-1 -200 -84 -347 -180 -434c-5 -5 -10 -7 -13 -7c-4 0 -6 2 -6 6c0 3 1 7 4 11c54 83 136 225 136 424s-82 341 -136 424c-3 4 -4 8 -4 11c0 4 2 6 6 6c3 0 8 -2 13 -7
c96 -87 180 -244 180 -434zM209 -67c0 -4 -2 -6 -6 -6c-3 0 -8 2 -13 7c-96 87 -179 234 -180 434c0 190 84 347 180 434c5 5 10 7 13 7c4 0 6 -2 6 -6c0 -3 -1 -7 -4 -11c-54 -83 -136 -225 -136 -424s82 -341 136 -424c3 -4 4 -8 4 -11z" />
    <glyph glyph-name="uni24A2" unicode="&#x24a2;" 
d="M743 635c0 -25 -10 -36 -36 -36c-40 0 -10 40 -62 40c-8 0 -18 -1 -29 -6c27 -26 41 -58 41 -98c0 -78 -59 -137 -174 -137c-20 0 -37 1 -54 6c-31 -16 -49 -31 -50 -48c-1 -14 23 -21 79 -21c185 0 263 -32 263 -125c0 -94 -107 -141 -253 -141c-137 0 -184 49 -184 100
c0 50 32 91 77 113c-40 5 -56 28 -56 51c0 30 39 59 85 80c-54 22 -82 67 -82 122c0 80 57 140 175 140c48 0 83 -9 112 -27c26 18 60 27 80 27c43 0 68 -14 68 -40zM990 368c-1 -200 -84 -347 -180 -434c-5 -5 -10 -7 -13 -7c-4 0 -6 2 -6 6c0 3 1 7 4 11
c54 83 136 225 136 424s-82 341 -136 424c-3 4 -4 8 -4 11c0 4 2 6 6 6c3 0 8 -2 13 -7c96 -87 180 -244 180 -434zM209 -67c0 -4 -2 -6 -6 -6c-3 0 -8 2 -13 7c-96 87 -179 234 -180 434c0 190 84 347 180 434c5 5 10 7 13 7c4 0 6 -2 6 -6c0 -3 -1 -7 -4 -11
c-54 -83 -136 -225 -136 -424s82 -341 136 -424c3 -4 4 -8 4 -11zM575 521c0 72 -36 127 -101 127c-61 0 -85 -39 -85 -101c0 -72 36 -122 103 -122c58 0 83 37 83 96zM633 193c0 60 -48 83 -229 86c-43 -24 -61 -64 -61 -94c0 -56 40 -86 139 -86c98 0 151 55 151 94z" />
    <glyph glyph-name="uni24A3" unicode="&#x24a3;" 
d="M749 64c0 -5 -2 -7 -7 -7h-178c-5 0 -8 2 -8 7s2 7 7 8c42 3 46 22 46 47v209c0 87 -46 124 -87 124c-49 0 -91 -25 -120 -61v-272c0 -27 4 -44 46 -47c5 -1 9 -3 9 -8s-3 -7 -8 -7h-177c-8 0 -8 2 -8 7s2 7 7 8c43 3 49 22 49 47v509c0 22 -2 24 -47 24c-6 0 -9 4 -9 8
s3 8 7 8c41 7 80 18 123 33h1c5 0 7 -4 7 -10v-260c41 44 97 67 143 67c95 0 148 -62 148 -167v-212c0 -25 6 -43 50 -47c4 0 6 -3 6 -8zM990 368c-1 -200 -84 -347 -180 -434c-5 -5 -10 -7 -13 -7c-4 0 -6 2 -6 6c0 3 1 7 4 11c54 83 136 225 136 424s-82 341 -136 424
c-3 4 -4 8 -4 11c0 4 2 6 6 6c3 0 8 -2 13 -7c96 -87 180 -244 180 -434zM209 -67c0 -4 -2 -6 -6 -6c-3 0 -8 2 -13 7c-96 87 -179 234 -180 434c0 190 84 347 180 434c5 5 10 7 13 7c4 0 6 -2 6 -6c0 -3 -1 -7 -4 -11c-54 -83 -136 -225 -136 -424s82 -341 136 -424
c3 -4 4 -8 4 -11z" />
    <glyph glyph-name="uni24A4" unicode="&#x24a4;" 
d="M555 639c0 -29 -25 -58 -56 -58c-30 0 -56 29 -56 58c0 30 26 58 56 58c31 0 56 -28 56 -58zM990 368c-1 -200 -84 -347 -180 -434c-5 -5 -10 -7 -13 -7c-4 0 -6 2 -6 6c0 3 1 7 4 11c54 83 136 225 136 424s-82 341 -136 424c-3 4 -4 8 -4 11c0 4 2 6 6 6
c3 0 8 -2 13 -7c96 -87 180 -244 180 -434zM209 -67c0 -4 -2 -6 -6 -6c-3 0 -8 2 -13 7c-96 87 -179 234 -180 434c0 190 84 347 180 434c5 5 10 7 13 7c4 0 6 -2 6 -6c0 -3 -1 -7 -4 -11c-54 -83 -136 -225 -136 -424s82 -341 136 -424c3 -4 4 -8 4 -11zM603 61
c0 -6 -3 -7 -8 -7h-185c-5 0 -8 1 -8 7c0 5 3 7 7 7c47 5 53 22 53 48v305c0 25 0 25 -47 25c-7 0 -10 4 -10 8s2 7 7 8c45 7 91 20 126 32h2c3 0 6 -4 6 -9v-369c0 -26 3 -44 50 -48c4 0 7 -2 7 -7z" />
    <glyph glyph-name="uni24A5" unicode="&#x24a5;" 
d="M574 639c0 -30 -25 -59 -56 -59c-32 0 -56 29 -56 59s24 58 56 58c31 0 56 -28 56 -58zM990 368c-1 -200 -84 -347 -180 -434c-5 -5 -10 -7 -13 -7c-4 0 -6 2 -6 6c0 3 1 7 4 11c54 83 136 225 136 424s-82 341 -136 424c-3 4 -4 8 -4 11c0 4 2 6 6 6c3 0 8 -2 13 -7
c96 -87 180 -244 180 -434zM209 -67c0 -4 -2 -6 -6 -6c-3 0 -8 2 -13 7c-96 87 -179 234 -180 434c0 190 84 347 180 434c5 5 10 7 13 7c4 0 6 -2 6 -6c0 -3 -1 -7 -4 -11c-54 -83 -136 -225 -136 -424s82 -341 136 -424c3 -4 4 -8 4 -11zM562 213
c0 -115 -39 -160 -121 -160c-68 0 -105 37 -105 71c0 31 14 43 35 43c29 0 40 -17 40 -39c0 -25 5 -46 30 -46c32 0 40 43 40 131v270c0 25 -3 25 -47 25c-7 0 -10 5 -10 9c0 3 2 7 7 7c41 8 91 21 126 33h1c3 0 4 -4 4 -10v-334z" />
    <glyph glyph-name="uni24A6" unicode="&#x24a6;" 
d="M767 66c0 -4 -2 -8 -8 -8h-122c-13 0 -16 3 -22 10l-166 221l-23 -17v-152c0 -25 11 -45 53 -47c3 0 7 -3 7 -8s-3 -7 -8 -7h-179c-8 0 -8 2 -8 7s2 7 7 8c43 3 49 22 49 47v509c0 22 -2 24 -47 24c-6 0 -9 4 -9 8s3 8 7 8c39 7 90 21 124 33h3c4 0 5 -4 5 -10v-382
l142 110c9 8 15 17 15 26c0 12 -10 23 -33 29c-6 1 -8 3 -8 8s2 6 9 6h161c6 0 8 0 8 -6c0 -5 -2 -7 -6 -7c-41 -11 -68 -28 -112 -62l-100 -80l178 -225c18 -23 41 -30 76 -35c4 -1 7 -4 7 -8zM990 368c-1 -200 -84 -347 -180 -434c-5 -5 -10 -7 -13 -7c-4 0 -6 2 -6 6
c0 3 1 7 4 11c54 83 136 225 136 424s-82 341 -136 424c-3 4 -4 8 -4 11c0 4 2 6 6 6c3 0 8 -2 13 -7c96 -87 180 -244 180 -434zM209 -67c0 -4 -2 -6 -6 -6c-3 0 -8 2 -13 7c-96 87 -179 234 -180 434c0 190 84 347 180 434c5 5 10 7 13 7c4 0 6 -2 6 -6c0 -3 -1 -7 -4 -11
c-54 -83 -136 -225 -136 -424s82 -341 136 -424c3 -4 4 -8 4 -11z" />
    <glyph glyph-name="uni24A7" unicode="&#x24a7;" 
d="M601 64c0 -5 -3 -7 -8 -7h-185c-7 0 -8 2 -8 7s2 7 7 8c47 4 50 22 50 47v509c0 22 0 24 -47 24c-6 0 -9 4 -9 8s2 7 7 8c36 6 93 21 128 33h1c3 0 4 -4 4 -10v-572c0 -25 6 -43 53 -47c3 0 7 -3 7 -8zM990 368c-1 -200 -84 -347 -180 -434c-5 -5 -10 -7 -13 -7
c-4 0 -6 2 -6 6c0 3 1 7 4 11c54 83 136 225 136 424s-82 341 -136 424c-3 4 -4 8 -4 11c0 4 2 6 6 6c3 0 8 -2 13 -7c96 -87 180 -244 180 -434zM209 -67c0 -4 -2 -6 -6 -6c-3 0 -8 2 -13 7c-96 87 -179 234 -180 434c0 190 84 347 180 434c5 5 10 7 13 7c4 0 6 -2 6 -6
c0 -3 -1 -7 -4 -11c-54 -83 -136 -225 -136 -424s82 -341 136 -424c3 -4 4 -8 4 -11z" />
    <glyph glyph-name="uni24A8" unicode="&#x24a8;" 
d="M842 156c0 -5 -3 -7 -8 -7h-170c-7 0 -7 2 -7 7s1 6 6 7c38 4 40 19 40 41v7v208c0 90 -25 124 -66 124s-75 -24 -98 -62c1 -18 3 -36 3 -58v-212c0 -26 2 -43 41 -48c2 -1 6 -2 6 -7s-2 -7 -7 -7h-163c-5 0 -7 2 -7 7s2 7 7 7c41 4 42 22 42 48v208
c0 90 -27 124 -68 124c-38 0 -71 -21 -93 -56v-276c0 -26 5 -43 38 -48c5 -1 9 -2 9 -7s-2 -7 -7 -7h-171c-8 0 -8 2 -8 7s2 6 7 7c43 4 49 22 49 48v306c0 25 -2 25 -47 25c-6 0 -9 4 -9 9c0 3 2 7 7 8c36 6 83 19 124 29c1 0 2 1 2 1c4 0 6 -4 6 -10v-54
c28 41 73 64 117 64c64 0 97 -24 114 -78c30 48 79 78 131 78c92 0 124 -54 124 -166v-212c0 -26 7 -43 49 -48c3 -1 7 -2 7 -7zM990 368c-1 -200 -84 -347 -180 -434c-5 -5 -10 -7 -13 -7c-4 0 -6 2 -6 6c0 3 1 7 4 11c54 83 136 225 136 424s-82 341 -136 424
c-3 4 -4 8 -4 11c0 4 2 6 6 6c3 0 8 -2 13 -7c96 -87 180 -244 180 -434zM209 -67c0 -4 -2 -6 -6 -6c-3 0 -8 2 -13 7c-96 87 -179 234 -180 434c0 190 84 347 180 434c5 5 10 7 13 7c4 0 6 -2 6 -6c0 -3 -1 -7 -4 -11c-54 -83 -136 -225 -136 -424s82 -341 136 -424
c3 -4 4 -8 4 -11z" />
    <glyph glyph-name="uni24A9" unicode="&#x24a9;" 
d="M746 156c0 -6 -3 -7 -8 -7h-178c-5 0 -8 1 -8 7c0 5 2 6 7 7c42 4 46 22 46 48v208c0 88 -46 124 -87 124c-48 0 -91 -25 -120 -60v-272c0 -27 4 -44 46 -48c5 -1 9 -2 9 -7c0 -6 -2 -7 -7 -7h-179c-7 0 -7 1 -7 7c0 5 1 6 6 7c44 4 50 22 50 48v305c0 25 -3 25 -47 25
c-6 0 -9 5 -9 9s2 8 6 8c42 7 91 21 125 30c1 0 2 1 3 1c3 0 4 -4 4 -10v-56c42 43 97 66 144 66c94 0 148 -62 148 -167v-211c0 -26 6 -44 49 -48c3 0 7 -2 7 -7zM990 368c-1 -200 -84 -347 -180 -434c-5 -5 -10 -7 -13 -7c-4 0 -6 2 -6 6c0 3 1 7 4 11
c54 83 136 225 136 424s-82 341 -136 424c-3 4 -4 8 -4 11c0 4 2 6 6 6c3 0 8 -2 13 -7c96 -87 180 -244 180 -434zM209 -67c0 -4 -2 -6 -6 -6c-3 0 -8 2 -13 7c-96 87 -179 234 -180 434c0 190 84 347 180 434c5 5 10 7 13 7c4 0 6 -2 6 -6c0 -3 -1 -7 -4 -11
c-54 -83 -136 -225 -136 -424s82 -341 136 -424c3 -4 4 -8 4 -11z" />
    <glyph glyph-name="uni24AA" unicode="&#x24aa;" 
d="M990 368c-1 -200 -84 -347 -180 -434c-5 -5 -10 -7 -13 -7c-4 0 -6 2 -6 6c0 3 1 7 4 11c54 83 136 225 136 424s-82 341 -136 424c-3 4 -4 8 -4 11c0 4 2 6 6 6c3 0 8 -2 13 -7c96 -87 180 -244 180 -434zM723 368c0 -136 -91 -225 -222 -225c-127 0 -221 89 -221 225
s91 225 221 225c131 0 222 -89 222 -225zM209 -67c0 -4 -2 -6 -6 -6c-3 0 -8 2 -13 7c-96 87 -179 234 -180 434c0 190 84 347 180 434c5 5 10 7 13 7c4 0 6 -2 6 -6c0 -3 -1 -7 -4 -11c-54 -83 -136 -225 -136 -424s82 -341 136 -424c3 -4 4 -8 4 -11zM635 340
c0 140 -65 219 -146 219c-74 0 -121 -53 -121 -160c0 -133 52 -222 147 -222c74 0 120 58 120 163z" />
    <glyph glyph-name="uni24AB" unicode="&#x24ab;" 
d="M990 368c-1 -200 -84 -347 -180 -434c-5 -5 -10 -7 -13 -7c-4 0 -6 2 -6 6c0 3 1 7 4 11c54 83 136 225 136 424s-82 341 -136 424c-3 4 -4 8 -4 11c0 4 2 6 6 6c3 0 8 -2 13 -7c96 -87 180 -244 180 -434zM209 -67c0 -4 -2 -6 -6 -6c-3 0 -8 2 -13 7
c-96 87 -179 234 -180 434c0 190 84 347 180 434c5 5 10 7 13 7c4 0 6 -2 6 -6c0 -3 -1 -7 -4 -11c-54 -83 -136 -225 -136 -424s82 -341 136 -424c3 -4 4 -8 4 -11zM718 429c0 -138 -84 -225 -200 -225c-50 0 -99 17 -125 49v-138c0 -23 7 -43 55 -47c6 -1 9 -2 9 -8
c0 -5 -3 -7 -8 -7h-186c-7 0 -8 2 -8 7s2 7 7 8c43 6 49 24 49 47v465c0 22 -2 25 -47 25c-6 0 -9 4 -9 9c0 4 3 8 7 9c41 6 92 18 123 30h1c5 0 7 -4 7 -10v-44c25 33 73 54 129 54c120 0 196 -88 196 -224zM632 399c0 152 -57 212 -141 212c-44 0 -83 -23 -102 -65v-182
c0 -74 56 -122 122 -122c71 0 121 48 121 157z" />
    <glyph glyph-name="uni24AC" unicode="&#x24ac;" 
d="M990 368c-1 -200 -84 -347 -180 -434c-5 -5 -10 -7 -13 -7c-4 0 -6 2 -6 6c0 3 1 7 4 11c54 83 136 225 136 424s-82 341 -136 424c-3 4 -4 8 -4 11c0 4 2 6 6 6c3 0 8 -2 13 -7c96 -87 180 -244 180 -434zM209 -67c0 -4 -2 -6 -6 -6c-3 0 -8 2 -13 7
c-96 87 -179 234 -180 434c0 190 84 347 180 434c5 5 10 7 13 7c4 0 6 -2 6 -6c0 -3 -1 -7 -4 -11c-54 -83 -136 -225 -136 -424s82 -341 136 -424c3 -4 4 -8 4 -11zM746 60c0 -5 0 -7 -8 -7h-186c-5 0 -8 2 -8 7c0 8 3 7 7 8c48 7 57 23 57 47v135
c-27 -28 -79 -46 -134 -46c-118 0 -199 86 -199 225c0 134 85 224 201 224c53 0 108 -19 137 -46c27 15 43 24 68 40c1 1 3 2 4 2c3 0 5 -4 5 -9v-525c0 -23 5 -41 49 -47c5 -1 7 0 7 -8zM611 313v179c0 76 -58 124 -128 124c-74 0 -122 -57 -122 -164
c0 -142 60 -207 144 -207c45 0 89 26 106 68z" />
    <glyph glyph-name="uni24AD" unicode="&#x24ad;" 
d="M990 368c-1 -200 -84 -347 -180 -434c-5 -5 -10 -7 -13 -7c-4 0 -6 2 -6 6c0 3 1 7 4 11c54 83 136 225 136 424s-82 341 -136 424c-3 4 -4 8 -4 11c0 4 2 6 6 6c3 0 8 -2 13 -7c96 -87 180 -244 180 -434zM209 -67c0 -4 -2 -6 -6 -6c-3 0 -8 2 -13 7
c-96 87 -179 234 -180 434c0 190 84 347 180 434c5 5 10 7 13 7c4 0 6 -2 6 -6c0 -3 -1 -7 -4 -11c-54 -83 -136 -225 -136 -424s82 -341 136 -424c3 -4 4 -8 4 -11zM680 513c0 -33 -12 -46 -34 -46c-73 0 -10 76 -87 76c-48 0 -104 -49 -104 -93v-243c0 -26 7 -44 50 -48
c4 0 6 -2 6 -7c0 -6 -2 -7 -7 -7h-179c-7 0 -7 1 -7 7c0 5 1 6 6 7c44 4 50 22 50 48v303c0 25 -8 27 -47 27c-6 0 -9 4 -9 9c0 4 2 8 6 8c42 8 91 21 124 30c1 0 2 1 3 1c3 0 4 -4 4 -10v-60c36 42 83 70 139 70c50 0 86 -34 86 -72z" />
    <glyph glyph-name="uni24AE" unicode="&#x24ae;" 
d="M990 368c-1 -200 -84 -347 -180 -434c-5 -5 -10 -7 -13 -7c-4 0 -6 2 -6 6c0 3 1 7 4 11c54 83 136 225 136 424s-82 341 -136 424c-3 4 -4 8 -4 11c0 4 2 6 6 6c3 0 8 -2 13 -7c96 -87 180 -244 180 -434zM209 -67c0 -4 -2 -6 -6 -6c-3 0 -8 2 -13 7
c-96 87 -179 234 -180 434c0 190 84 347 180 434c5 5 10 7 13 7c4 0 6 -2 6 -6c0 -3 -1 -7 -4 -11c-54 -83 -136 -225 -136 -424s82 -341 136 -424c3 -4 4 -8 4 -11zM682 267c0 -76 -49 -125 -190 -125c-54 0 -109 17 -145 35c-4 2 -9 4 -9 8c-5 30 -10 72 -16 117v1
c0 2 2 3 5 4c2 0 3 1 5 1s4 -1 5 -3c34 -91 82 -133 148 -133c69 0 107 26 107 65c0 57 -27 83 -157 122c-72 22 -108 61 -108 118c0 63 57 115 149 115c45 0 79 -2 116 -11c16 -4 32 -3 41 3c2 1 4 1 5 1c4 0 6 -2 6 -5c3 -35 7 -74 16 -114c0 -3 -4 -6 -8 -7
c-6 0 -8 2 -9 6c-43 86 -95 100 -150 100c-58 0 -89 -25 -89 -68c0 -39 28 -56 124 -85c96 -31 154 -71 154 -145z" />
    <glyph glyph-name="uni24AF" unicode="&#x24af;" 
d="M641 144c0 -2 -2 -6 -4 -9c-26 -34 -56 -47 -100 -47c-64 0 -103 30 -103 98v311h-61c-8 0 -12 2 -14 12c0 1 -1 3 -1 4c0 6 4 10 14 11c58 2 108 59 120 121c2 6 6 11 15 11c8 0 9 -6 9 -14v-114h89c7 0 10 -2 10 -14s-3 -17 -10 -17h-89v-310c0 -41 21 -60 52 -60
c21 0 43 7 59 19c5 5 7 6 12 3c2 -1 2 -3 2 -5zM990 368c-1 -200 -84 -347 -180 -434c-5 -5 -10 -7 -13 -7c-4 0 -6 2 -6 6c0 3 1 7 4 11c54 83 136 225 136 424s-82 341 -136 424c-3 4 -4 8 -4 11c0 4 2 6 6 6c3 0 8 -2 13 -7c96 -87 180 -244 180 -434zM209 -67
c0 -4 -2 -6 -6 -6c-3 0 -8 2 -13 7c-96 87 -179 234 -180 434c0 190 84 347 180 434c5 5 10 7 13 7c4 0 6 -2 6 -6c0 -3 -1 -7 -4 -11c-54 -83 -136 -225 -136 -424s82 -341 136 -424c3 -4 4 -8 4 -11z" />
    <glyph glyph-name="uni24B0" unicode="&#x24b0;" 
d="M990 368c-1 -200 -84 -347 -180 -434c-5 -5 -10 -7 -13 -7c-4 0 -6 2 -6 6c0 3 1 7 4 11c54 83 136 225 136 424s-82 341 -136 424c-3 4 -4 8 -4 11c0 4 2 6 6 6c3 0 8 -2 13 -7c96 -87 180 -244 180 -434zM209 -67c0 -4 -2 -6 -6 -6c-3 0 -8 2 -13 7
c-96 87 -179 234 -180 434c0 190 84 347 180 434c5 5 10 7 13 7c4 0 6 -2 6 -6c0 -3 -1 -7 -4 -11c-54 -83 -136 -225 -136 -424s82 -341 136 -424c3 -4 4 -8 4 -11zM742 192c0 -3 -1 -6 -4 -7c-33 -14 -87 -31 -129 -41h-1c-4 0 -7 3 -7 10c0 19 -1 56 -1 56
c-41 -44 -97 -67 -144 -67c-97 0 -146 57 -146 162v217c0 25 -6 44 -49 47c-4 0 -7 3 -7 8s2 7 7 7h116c9 0 14 -1 14 -16v-260c0 -87 46 -115 91 -115c46 0 89 22 118 57v272c0 25 -9 44 -52 47c-5 1 -7 3 -7 8s0 7 8 7h122c9 0 11 -2 11 -16v-352c0 -15 4 -21 18 -21
c8 0 19 2 35 5h2c3 0 5 -4 5 -8z" />
    <glyph glyph-name="uni24B1" unicode="&#x24b1;" 
d="M990 368c-1 -200 -84 -347 -180 -434c-5 -5 -10 -7 -13 -7c-4 0 -6 2 -6 6c0 3 1 7 4 11c54 83 136 225 136 424s-82 341 -136 424c-3 4 -4 8 -4 11c0 4 2 6 6 6c3 0 8 -2 13 -7c96 -87 180 -244 180 -434zM209 -67c0 -4 -2 -6 -6 -6c-3 0 -8 2 -13 7
c-96 87 -179 234 -180 434c0 190 84 347 180 434c5 5 10 7 13 7c4 0 6 -2 6 -6c0 -3 -1 -7 -4 -11c-54 -83 -136 -225 -136 -424s82 -341 136 -424c3 -4 4 -8 4 -11zM750 575c0 -1 0 -3 -1 -4s-2 -1 -6 -2c-27 -5 -51 -21 -64 -55l-140 -363c-1 -4 -8 -11 -14 -11
c-9 0 -15 7 -17 11l-185 389c-9 19 -20 24 -49 27c-4 0 -6 3 -6 7s1 7 6 7h185c6 0 8 -2 8 -6c0 -5 -3 -7 -8 -8c-28 -4 -40 -13 -40 -24c0 -2 1 -5 2 -8l123 -276l97 253c2 5 3 10 3 15c0 15 -9 25 -24 33c-9 4 -19 7 -30 9c-5 1 -7 3 -7 6c0 4 1 6 8 6h151c6 0 8 -2 8 -6z
" />
    <glyph glyph-name="uni24B2" unicode="&#x24b2;" 
d="M990 368c-1 -200 -84 -347 -180 -434c-5 -5 -10 -7 -13 -7c-4 0 -6 2 -6 6c0 3 1 7 4 11c54 83 136 225 136 424s-82 341 -136 424c-3 4 -4 8 -4 11c0 4 2 6 6 6c3 0 8 -2 13 -7c96 -87 180 -244 180 -434zM209 -67c0 -4 -2 -6 -6 -6c-3 0 -8 2 -13 7
c-96 87 -179 234 -180 434c0 190 84 347 180 434c5 5 10 7 13 7c4 0 6 -2 6 -6c0 -3 -1 -7 -4 -11c-54 -83 -136 -225 -136 -424s82 -341 136 -424c3 -4 4 -8 4 -11zM846 577c0 -3 -1 -6 -6 -7c-29 -7 -49 -28 -58 -55l-118 -366c-2 -6 -8 -8 -14 -8c-7 0 -16 4 -18 8
l-121 322l-104 -322c-3 -6 -10 -8 -17 -8s-15 2 -15 8l-157 392c-4 8 -10 15 -20 20c-7 3 -16 5 -26 7c-4 1 -6 3 -6 7c0 5 2 7 7 7h177c6 0 8 -2 8 -6c0 -5 -3 -7 -8 -8c-28 -4 -45 -16 -45 -28c0 -1 0 -3 1 -4l106 -271l78 244c1 3 2 7 2 10c0 24 -27 45 -57 49
c-4 1 -6 3 -6 7c0 5 2 7 7 7h166c6 0 9 -1 9 -5c0 -5 -1 -7 -8 -9c-22 -5 -42 -15 -42 -28c0 -1 1 -3 1 -4l107 -271l80 248c1 3 1 6 1 9c0 21 -19 39 -49 48c-7 1 -7 3 -7 6c0 4 1 6 8 6h137c7 0 7 -1 7 -5z" />
    <glyph glyph-name="uni24B3" unicode="&#x24b3;" 
d="M990 368c-1 -200 -84 -347 -180 -434c-5 -5 -10 -7 -13 -7c-4 0 -6 2 -6 6c0 3 1 7 4 11c54 83 136 225 136 424s-82 341 -136 424c-3 4 -4 8 -4 11c0 4 2 6 6 6c3 0 8 -2 13 -7c96 -87 180 -244 180 -434zM209 -67c0 -4 -2 -6 -6 -6c-3 0 -8 2 -13 7
c-96 87 -179 234 -180 434c0 190 84 347 180 434c5 5 10 7 13 7c4 0 6 -2 6 -6c0 -3 -1 -7 -4 -11c-54 -83 -136 -225 -136 -424s82 -341 136 -424c3 -4 4 -8 4 -11zM740 159c0 -5 -2 -7 -5 -7h-185c-6 0 -7 1 -7 6c0 4 2 6 6 6c28 4 39 12 39 21c0 3 -1 7 -4 11l-94 136
l-91 -124c-2 -3 -3 -7 -3 -11c0 -12 13 -25 41 -33c5 0 7 -2 7 -6c0 -5 0 -6 -6 -6h-148c-3 0 -7 2 -7 7s2 6 6 7c33 9 52 21 62 34l120 160l-131 184c-12 17 -22 22 -42 24c-4 0 -7 3 -7 7c0 5 2 8 8 8h168c3 0 6 -2 6 -6c0 -5 0 -7 -7 -8c-23 -4 -31 -9 -31 -15
c0 -3 1 -6 4 -10l82 -120l81 110c2 3 3 6 3 9c0 13 -18 24 -42 26c-5 0 -7 3 -7 8c0 4 3 6 6 6h140c6 0 8 -3 8 -8c0 -4 -1 -5 -5 -6c-26 -4 -44 -14 -56 -30l-107 -142l140 -204c1 -2 3 -4 4 -5c8 -9 18 -15 31 -19c5 -1 11 -2 17 -3c3 0 6 -3 6 -7z" />
    <glyph glyph-name="uni24B4" unicode="&#x24b4;" 
d="M990 368c-1 -200 -84 -347 -180 -434c-5 -5 -10 -7 -13 -7c-4 0 -6 2 -6 6c0 3 1 7 4 11c54 83 136 225 136 424s-82 341 -136 424c-3 4 -4 8 -4 11c0 4 2 6 6 6c3 0 8 -2 13 -7c96 -87 180 -244 180 -434zM209 -67c0 -4 -2 -6 -6 -6c-3 0 -8 2 -13 7
c-96 87 -179 234 -180 434c0 190 84 347 180 434c5 5 10 7 13 7c4 0 6 -2 6 -6c0 -3 -1 -7 -4 -11c-54 -83 -136 -225 -136 -424s82 -341 136 -424c3 -4 4 -8 4 -11zM756 654c0 -2 0 -7 -7 -8c-33 -8 -53 -28 -69 -68l-176 -431c-27 -61 -57 -84 -103 -84
c-59 0 -96 34 -96 68c0 28 11 42 34 42c66 0 18 -74 77 -74c18 0 39 17 60 66l30 72l-182 382c-9 18 -25 24 -51 27c-5 0 -6 2 -6 6c0 6 1 8 7 8h186c6 0 8 -2 8 -6s-4 -6 -9 -7c-29 -6 -39 -13 -39 -24c0 -2 1 -6 2 -9l126 -270l91 229c4 10 6 19 6 27c0 25 -20 38 -54 46
c-5 1 -7 6 -7 8c0 4 3 6 7 6h156c7 0 9 -2 9 -6z" />
    <glyph glyph-name="uni24B5" unicode="&#x24b5;" 
d="M990 368c-1 -200 -84 -347 -180 -434c-5 -5 -10 -7 -13 -7c-4 0 -6 2 -6 6c0 3 1 7 4 11c54 83 136 225 136 424s-82 341 -136 424c-3 4 -4 8 -4 11c0 4 2 6 6 6c3 0 8 -2 13 -7c96 -87 180 -244 180 -434zM209 -67c0 -4 -2 -6 -6 -6c-3 0 -8 2 -13 7
c-96 87 -179 234 -180 434c0 190 84 347 180 434c5 5 10 7 13 7c4 0 6 -2 6 -6c0 -3 -1 -7 -4 -11c-54 -83 -136 -225 -136 -424s82 -341 136 -424c3 -4 4 -8 4 -11zM690 284c-12 -44 -22 -91 -24 -122c0 -6 -4 -10 -10 -10h-362c-5 0 -9 2 -9 6c0 2 1 5 4 8
c103 131 205 268 291 394h-120c-61 0 -88 -27 -135 -112c-2 -2 -4 -5 -6 -5c-1 0 -2 1 -3 1c-3 1 -5 3 -5 6v2c10 47 17 84 20 121c1 9 2 10 8 10h339c4 0 6 -2 6 -5c0 -2 -1 -4 -2 -5c-89 -126 -197 -284 -286 -394c78 0 107 2 163 8c49 6 87 45 115 100c2 3 5 6 8 6
c1 0 2 -1 3 -1c4 -2 5 -3 5 -6v-2z" />
    <glyph glyph-name="Japan1.8184" 
d="M356 337c0 -6 -3 -7 -7 -7h-186c-4 0 -8 2 -8 7c0 3 1 7 6 8c43 8 56 21 56 48v311c0 9 -1 13 -10 13c-7 0 -18 -2 -36 -8h-1c-4 0 -7 4 -7 8c0 3 1 6 4 7c40 16 81 35 119 56c1 0 2 1 4 1c4 0 8 -3 8 -10v-378c0 -27 6 -37 53 -48c4 -1 5 -4 5 -8zM951 810l-827 -885
h-75l827 885h75zM905 74c-8 -35 -15 -67 -19 -104c-1 -10 0 -16 -11 -16h-266c-7 0 -10 7 -10 16c0 4 1 8 2 12c20 57 54 108 126 167c58 48 84 93 85 142v4c0 57 -21 81 -61 81c-35 0 -57 -16 -58 -44v-2c0 -21 18 -27 18 -54c0 -24 -12 -50 -50 -50c-34 0 -47 26 -47 59
c0 53 53 117 141 117c81 0 143 -50 143 -118c0 -51 -20 -94 -131 -160c-47 -28 -91 -64 -112 -106h22c33 0 96 0 132 4c42 5 57 12 83 56c2 3 3 6 7 6h2c2 -2 4 -4 4 -8v-2z" />
    <glyph glyph-name="Japan1.8185" 
d="M356 337c0 -6 -3 -7 -7 -7h-186c-4 0 -8 2 -8 7c0 3 1 7 6 8c43 8 56 21 56 48v311c0 9 -1 13 -10 13c-7 0 -18 -2 -36 -8h-1c-4 0 -7 4 -7 8c0 3 1 6 4 7c40 16 81 35 119 56c1 0 2 1 4 1c4 0 8 -3 8 -10v-378c0 -27 6 -37 53 -48c4 -1 5 -4 5 -8zM951 810l-827 -885
h-75l827 885h75zM919 79c0 -13 -2 -19 -10 -19h-64v-43c0 -27 6 -37 53 -48c4 -1 5 -4 5 -8c0 -6 -3 -7 -7 -7h-186c-4 0 -8 2 -8 7c0 3 1 7 6 8c43 8 56 21 56 48v43h-182h-3c-6 0 -12 1 -15 11c0 10 2 15 8 23l237 303c5 6 11 11 22 11c8 0 14 -3 14 -23v-287h64
c6 0 10 -5 10 -19zM775 279c0 2 0 7 -1 7s-2 -1 -4 -3l-145 -185h139c0 61 2 116 11 181z" />
    <glyph glyph-name="uni24EA" unicode="&#x24ea;" 
d="M988 368c0 -269 -219 -488 -488 -488s-488 219 -488 488s219 488 488 488s488 -219 488 -488zM942 368c0 244 -198 441 -442 441s-441 -197 -441 -441s197 -442 441 -442s442 198 442 442zM763 369c0 -190 -95 -316 -263 -316c-170 0 -263 130 -263 316
c0 174 92 314 263 314c168 0 263 -141 263 -314zM678 369c0 195 -95 282 -178 282c-84 0 -181 -87 -181 -282c0 -200 97 -282 181 -282c83 0 178 82 178 282z" />
    <glyph glyph-name="uni216A" unicode="&#x216a;" 
d="M914 7c0 -6 -4 -7 -12 -7h-468c-7 0 -9 2 -10 7c0 5 1 9 10 11c26 5 38 13 38 24c0 3 -1 7 -3 11c-42 93 -84 182 -127 268c-38 -82 -78 -161 -110 -234c-3 -7 -5 -14 -5 -21c0 -8 3 -16 8 -22c9 -12 26 -20 48 -26c6 -2 9 -5 9 -10c0 -6 -2 -8 -10 -8h-197
c-9 0 -15 4 -15 9c0 4 4 8 13 10c55 12 77 27 98 67c47 92 95 186 139 278c-61 125 -116 235 -167 330c-9 18 -30 22 -59 26c-11 2 -16 8 -16 13s4 10 12 10h218c5 0 9 -4 9 -8c0 -5 -2 -8 -10 -10c-26 -6 -43 -14 -43 -26c0 -2 0 -4 1 -6c25 -56 65 -135 109 -225
c31 64 63 134 84 185c5 12 7 22 7 30c0 21 -16 31 -45 43c-8 3 -10 5 -10 10c0 6 3 7 11 7h481c8 0 12 -1 12 -7c0 -5 -1 -9 -8 -10c-12 -3 -38 -10 -53 -16c-12 -6 -21 -16 -21 -32c-1 -86 -1 -179 -1 -306c0 -114 1 -221 1 -308c0 -13 7 -23 20 -30c15 -7 42 -14 54 -17
c7 -1 8 -5 8 -10zM731 372c0 127 -1 223 -1 310c0 25 -59 38 -100 38c-63 0 -98 -18 -124 -70c-38 -75 -72 -145 -109 -224c60 -121 128 -253 192 -374c8 -17 17 -27 68 -27c46 0 73 14 73 39c0 87 1 194 1 308z" />
    <glyph glyph-name="uni216B" unicode="&#x216b;" 
d="M955 9c0 -7 -4 -9 -11 -9h-530c-7 0 -9 2 -10 7c0 5 1 9 10 11c26 5 38 13 38 24c0 3 -1 7 -3 11c-42 93 -84 182 -127 268c-38 -82 -78 -161 -110 -234c-3 -7 -5 -14 -5 -21c0 -8 3 -16 8 -22c9 -12 26 -20 48 -26c6 -2 9 -5 9 -10c0 -6 -2 -8 -10 -8h-197
c-9 0 -15 4 -15 9c0 4 4 8 13 10c55 12 77 27 98 67c47 92 95 186 139 278c-61 125 -116 235 -167 330c-9 18 -30 22 -59 26c-11 2 -16 8 -16 13s4 10 12 10h218c5 0 9 -4 9 -8c0 -5 -2 -8 -10 -10c-26 -6 -45 -16 -45 -28c0 -2 0 -4 1 -6c25 -56 65 -135 109 -225
c31 64 65 136 86 187c5 12 7 22 7 30c0 21 -16 31 -45 43c-8 3 -10 5 -10 10c0 6 3 7 11 7h543c7 0 10 -2 10 -8c0 -4 -1 -6 -4 -8c-1 0 -2 -1 -3 -1c-9 -3 -26 -6 -40 -12c-17 -7 -28 -16 -28 -32c0 -87 -1 -183 -1 -310c0 -114 1 -221 1 -308c0 -14 8 -24 21 -31
c16 -9 32 -13 47 -15c6 -1 8 -4 8 -9zM588 372c0 127 -1 223 -1 310c0 14 -12 30 -25 30c-37 0 -57 -24 -76 -62c-38 -75 -74 -149 -111 -228c60 -121 127 -247 190 -368c5 -9 11 -16 16 -16c3 0 6 4 6 16c0 87 1 204 1 318zM783 372c0 127 -1 223 -1 310c0 13 -7 24 -20 31
c-9 5 -19 7 -30 7c-12 0 -24 -3 -34 -9c-11 -6 -16 -16 -16 -29c0 -87 -1 -183 -1 -310c0 -114 1 -221 1 -308c0 -15 8 -25 20 -33c8 -5 18 -7 29 -7c13 0 27 4 36 11c10 7 15 16 15 29c0 87 1 194 1 308z" />
    <glyph glyph-name="Japan1.8227" 
d="M990 368c-1 -200 -84 -347 -180 -434c-5 -5 -10 -7 -13 -7c-4 0 -6 2 -6 6c0 3 1 7 4 11c54 83 136 225 136 424s-82 341 -136 424c-3 4 -4 8 -4 11c0 4 2 6 6 6c3 0 8 -2 13 -7c96 -87 180 -244 180 -434zM763 369c0 -190 -95 -316 -263 -316c-170 0 -263 130 -263 316
c0 174 92 314 263 314c168 0 263 -141 263 -314zM209 -67c0 -4 -2 -6 -6 -6c-3 0 -8 2 -13 7c-96 87 -179 234 -180 434c0 190 84 347 180 434c5 5 10 7 13 7c4 0 6 -2 6 -6c0 -3 -1 -7 -4 -11c-54 -83 -136 -225 -136 -424s82 -341 136 -424c3 -4 4 -8 4 -11zM678 369
c0 195 -95 282 -178 282c-84 0 -181 -87 -181 -282c0 -200 97 -282 181 -282c83 0 178 82 178 282z" />
    <glyph glyph-name="Japan1.8228" 
d="M833 372c0 -234 -126 -387 -333 -387c-87 0 -159 27 -213 76l-62 -81c-2 -2 -5 -3 -8 -3c-11 0 -28 14 -28 25c0 2 1 4 2 6l65 84c-57 69 -88 166 -88 280c0 214 121 385 332 385c84 0 154 -28 209 -76l71 93c2 2 5 4 8 4c12 0 28 -14 28 -25c0 -2 0 -4 -2 -6l-74 -97
c60 -70 93 -168 93 -278zM660 618c-43 68 -104 101 -160 101c-103 0 -222 -108 -222 -347c0 -84 14 -151 37 -203zM719 372c0 83 -14 151 -37 203l-345 -449c44 -69 106 -100 163 -100c103 0 219 101 219 346z" />
    <glyph glyph-name="uni2776" unicode="&#x2776;" 
d="M988 368c0 -269 -219 -488 -488 -488s-488 219 -488 488s219 488 488 488s488 -219 488 -488zM647 82c0 10 -7 18 -19 20c-19 3 -40 6 -58 12c-11 4 -13 7 -13 13v243c0 93 0 265 2 290v3c0 15 -9 20 -18 20c-4 0 -8 -1 -11 -2c-46 -21 -107 -45 -162 -65
c-11 -4 -15 -13 -15 -21c0 -1 1 -3 1 -5c3 -8 10 -16 21 -16c1 0 3 1 5 1c33 7 49 11 58 11c6 0 8 -3 8 -8v-208v-243c0 -6 -3 -9 -13 -13c-17 -6 -40 -9 -58 -12c-12 -2 -19 -10 -19 -20c0 -15 12 -19 23 -19h245c11 0 23 4 23 19z" />
    <glyph glyph-name="uni2777" unicode="&#x2777;" 
d="M988 368c0 -269 -219 -488 -488 -488s-488 219 -488 488s219 488 488 488s488 -219 488 -488zM733 226c0 8 -6 14 -14 17c-3 1 -5 1 -7 1c-10 0 -17 -6 -19 -12c-29 -56 -51 -65 -131 -71c-62 -5 -161 -5 -202 -5c25 50 78 101 148 136c140 72 209 135 209 221
c0 106 -94 173 -222 173c-118 0 -213 -69 -213 -167v-3c0 -34 16 -58 49 -65c6 -1 12 -2 18 -2c37 0 61 29 61 57c0 10 -3 20 -9 29c-8 12 -13 24 -13 35c0 33 37 59 102 59c61 0 114 -39 114 -107c0 -61 -62 -117 -136 -169c-114 -79 -171 -157 -204 -243
c-3 -7 -4 -15 -4 -22c0 -12 5 -21 24 -21h398c5 0 10 0 15 3c6 5 8 12 9 18c6 32 16 90 26 133c1 2 1 4 1 5z" />
    <glyph glyph-name="uni2778" unicode="&#x2778;" 
d="M988 368c0 -269 -219 -488 -488 -488s-488 219 -488 488s219 488 488 488s488 -219 488 -488zM730 240c0 64 -44 117 -102 145c-10 5 -22 10 -31 12c11 3 22 8 32 13c45 24 77 67 77 127c0 87 -85 149 -214 149c-109 0 -204 -63 -204 -139c0 -26 13 -50 44 -58
c5 -1 11 -2 16 -2c34 0 60 26 60 54c0 8 -2 16 -7 24c-4 6 -6 12 -6 18c0 24 28 47 89 48h3c68 0 106 -36 112 -94v-11c0 -74 -71 -105 -170 -106c-15 -1 -34 -3 -34 -26c0 -20 17 -24 31 -24c113 -1 183 -42 192 -133c0 -4 1 -7 1 -11c0 -66 -61 -113 -120 -113h-10
c-73 6 -102 38 -104 88c0 40 -22 65 -65 65c-39 0 -55 -36 -55 -64c0 -4 0 -8 1 -11c11 -73 93 -135 227 -135c136 0 237 60 237 184z" />
    <glyph glyph-name="uni2779" unicode="&#x2779;" 
d="M988 368c0 -269 -219 -488 -488 -488s-488 219 -488 488s219 488 488 488s488 -219 488 -488zM730 239c0 24 -10 31 -28 31h-107v411c0 17 -7 25 -23 30c-4 1 -7 1 -10 1c-12 0 -19 -5 -25 -14c-107 -150 -216 -299 -311 -426c-8 -11 -9 -17 -9 -33c0 -17 4 -31 27 -31
h243v-101c0 -6 -2 -9 -14 -14c-15 -6 -32 -9 -48 -13c-12 -2 -19 -10 -19 -22c0 -17 15 -20 24 -20h219c11 0 23 5 23 20c0 9 -4 20 -18 22c-15 3 -33 7 -47 13c-10 4 -13 7 -13 14v101h108c17 0 28 4 28 31zM490 526c-2 -77 -3 -213 -3 -256h-183c61 84 145 198 186 256z
" />
    <glyph glyph-name="uni277A" unicode="&#x277a;" 
d="M988 368c0 -269 -219 -488 -488 -488s-488 219 -488 488s219 488 488 488s488 -219 488 -488zM731 252c0 121 -103 195 -235 195c-9 0 -17 0 -26 -1c-36 -2 -81 -18 -109 -37c10 61 20 129 27 163h277c13 0 19 9 20 17c4 20 14 53 17 70c1 2 1 5 1 7c0 5 -1 10 -7 15
c-4 1 -7 2 -10 2c-7 0 -12 -3 -16 -6c-8 -5 -18 -8 -36 -8h-276c-16 0 -20 -11 -21 -20c-12 -83 -28 -194 -45 -292c-1 -6 -2 -10 -2 -14c0 -11 5 -18 17 -22c4 -2 9 -2 12 -2c12 0 21 6 28 14c29 36 70 55 125 55c76 0 143 -56 147 -146v-6c0 -86 -59 -134 -127 -134
c-59 0 -103 33 -105 83c0 43 -23 64 -62 64s-53 -33 -53 -59c0 -3 1 -7 1 -10c11 -77 94 -131 221 -131c143 0 237 79 237 203z" />
    <glyph glyph-name="uni277B" unicode="&#x277b;" 
d="M988 368c0 -269 -219 -488 -488 -488s-488 219 -488 488s219 488 488 488s488 -219 488 -488zM734 245c0 108 -74 217 -214 217h-8c-52 -1 -111 -22 -148 -60c6 185 72 248 148 248c53 0 89 -34 89 -78v-2v-2c0 -46 29 -67 58 -67c28 0 56 20 56 58v7
c-7 79 -95 145 -196 145h-7c-165 -4 -254 -148 -254 -375c0 -212 110 -304 243 -307h7c153 0 226 108 226 216zM626 235c0 -97 -56 -146 -116 -146h-2c-67 1 -132 61 -136 168v4c0 80 62 131 129 132h2c62 0 120 -53 123 -153v-5z" />
    <glyph glyph-name="uni277C" unicode="&#x277c;" 
d="M988 368c0 -269 -219 -488 -488 -488s-488 219 -488 488s219 488 488 488s488 -219 488 -488zM749 629c0 9 -7 16 -24 16h-403c-15 0 -22 -9 -23 -21c-5 -34 -12 -79 -23 -124c0 -2 -1 -3 -1 -5c0 -7 4 -12 10 -14c2 -1 4 -2 6 -2s4 -1 6 -1c6 0 11 3 17 9
c31 50 45 62 117 62h197c-102 -111 -204 -316 -237 -467c-1 -4 -1 -8 -1 -12c0 -24 16 -45 56 -45c54 0 72 25 74 54c16 209 83 351 220 530c5 6 9 14 9 20z" />
    <glyph glyph-name="uni277D" unicode="&#x277d;" 
d="M988 368c0 -269 -219 -488 -488 -488s-488 219 -488 488s219 488 488 488s488 -219 488 -488zM739 220c0 82 -52 138 -135 180c63 31 108 83 108 145v2c-1 98 -89 165 -212 165c-122 0 -209 -64 -210 -165v-2c0 -64 38 -113 102 -152c-77 -34 -129 -96 -129 -172
c0 -127 106 -194 237 -194c136 0 239 68 239 193zM619 546c0 -50 -28 -89 -90 -112c-85 35 -137 75 -138 117v2c0 62 40 101 105 101c66 0 121 -44 123 -105v-3zM620 201c0 -79 -47 -113 -123 -113c-68 0 -138 61 -141 133v4c0 61 46 108 108 131c107 -38 153 -90 156 -148
v-7z" />
    </font>
</defs>
</svg>
